<?xml version="1.0" encoding="UTF-8"?>
<svg version="1.1" viewBox="0 0 2000 449" xmlns="http://www.w3.org/2000/svg">
<g transform="translate(-1.2121 1.1329)">
<svg width="2e3" height="449" data-background-color="#ffffff" viewBox="0 0 396 89" xmlns="http://www.w3.org/2000/svg" xmlns:xlink="http://www.w3.org/1999/xlink">
<g transform="translate(.24 -.22447)">
<svg width="395.52" height="89.449" viewBox="0 0 395.52 89.44903651721684">
<svg width="395.52" height="89.449" viewBox="0 0 395.52 89.44903651721684">
<g transform="translate(0 72.274)">
<svg width="395.52" height="17.175" viewBox="0 0 395.52 17.174687658710003">
<svg width="395.52" height="17.175" viewBox="0 0 395.52 17.174687658710003">
<svg width="395.52" height="17.175" viewBox="0 0 395.52 17.174687658710003">
<g>
<svg width="395.52" height="17.175" data-palette-color="#0e63ae" viewBox="2.1499999999999995 -41.25 984.4 42.75">
<path id="a" class="wordmark-text-0" d="m26.9-33.05-8.6 10.4 11.55 15.3q2.15 3.05 4.2 5.1l3.9 0.4q0.2 0.85 0.05 1.85-7.5-0.15-9.3-0.15-3.7 0-5.95 0.2-0.3-0.85-0.05-1.8l4.1-0.7q-0.45-0.95-3.55-5.3l-8.4-11.55h-2.85v17.1l4.05 0.5q0.2 0.75 0 1.85-3.15-0.15-6.85-0.15-2.7 0-6.9 0.1-0.3-0.9 0-1.8l4.15-0.6q0.2-1.9 0.2-5.85v-29.45l-4.05-0.5q-0.2-0.75 0-1.85 2.75 0.2 6.85 0.2 3.65 0 6.9-0.15 0.3 0.9 0 1.8l-4.15 0.6q-0.2 1.9-0.2 5.85v9.8h2.65l12.65-15.75-4.05-0.5q-0.2-0.75 0-1.85 2.75 0.2 5.75 0.2 2.6 0 5.8-0.15 0.3 0.9 0 1.8l-3.35 0.6q-2.3 1.8-4.55 4.45zm16.95 26.4q0 2.6 0.95 3.67 0.95 1.08 3 1.08 1.5 0 3.32-0.93 1.83-0.92 3.38-2.67v-7.8q-5.15 0.3-7.9 1.82-2.75 1.53-2.75 4.83zm10.65-8.45v-2.55q0-4.25-0.98-6.18-0.97-1.92-3.22-1.92-2.3 0-3.7 1.47-1.4 1.48-1.9 5.03-1.6 0.35-2.35 0.35-1.95 0-2.3-1.4 0-3.4 2.95-5.4t7.35-2q4.85 0 6.87 1.97 2.03 1.98 2.03 7.08v14.1q0 1.25 0.15 2.15l3.95 0.5q0.2 0.75 0 1.9-3.55 0.15-7.55 0.7-0.4-0.4-0.5-1l-0.25-3.45q-4.15 4.75-9.25 4.75-3.15 0-4.93-1.8-1.77-1.8-1.77-4.85 0-4.6 4.17-6.95 4.18-2.35 11.23-2.5zm19.95-11.6-0.1 5.15q1.25-2.3 3.47-4.23 2.23-1.92 4.23-1.92 1.55 0 2.75 0.35 0.4 0.65 0.4 1.7 0 1.65-0.7 3.3-1.8-0.5-3.45-0.5-4.1 0-6.75 4l-0.1 8.75v7.55l5.55 0.75q0.2 0.8 0 2-3.15-0.15-7.2-0.15-3.05 0-7.25 0.1-0.3-0.95 0-1.95l3.95-0.55q0.2-2.75 0.2-6.35v-13.7q0-1-0.15-1.85l-3.95-0.5q-0.2-0.75 0-1.9 3.45-0.25 8.6-1.05 0.45 0.5 0.5 1zm33.94 12.6h-15.7q-0.45 12.75 7.65 12.75 3.45 0 7.05-3.05 0.75 0.45 1.15 1.55-3.45 3.85-8.75 3.85-12.2 0-12.2-14.35 0-6.8 3.6-10.58 3.6-3.77 8.4-3.77 5.25 0 7.55 3.65t2.3 9.5q-0.5 0.4-1.05 0.45zm-8.9-11.6q-2.6 0-4.42 2.7-1.83 2.7-2.23 6.9h6.2q3.7 0 5.3-0.45 0-4.1-1.25-6.63-1.25-2.52-3.6-2.52zm34.4 17v-9.15q0-3.85-1.02-5.4-1.03-1.55-3.43-1.55-3.7 0-7.45 5.55v16.7l4.05 0.75q0.2 0.8 0 2-3.15-0.15-6.45-0.15-2.3 0-6.5 0.1-0.3-0.95 0-1.95l3.95-0.55q0.2-2.75 0.2-6.35v-13.7q0-1-0.15-1.85l-3.95-0.5q-0.2-0.75 0-1.9 3.45-0.25 8.6-1.05 0.45 0.5 0.5 1-0.25 1.3-0.25 4.45 3.95-5.45 8.9-5.45 7.75 0 7.75 7.35v17.8l4.05 0.75q0.2 0.8 0 2-3.15-0.15-6.45-0.15-2.3 0-6.5 0.1-0.3-0.95 0-1.95l3.95-0.55q0.2-2.75 0.2-6.35zm24.45-31.25q2.55 0 7.35-0.2t6.35-0.2h1.35q6.55 0 9.75 2.67 3.2 2.68 3.2 7.03 0 6.2-8.1 8.6v0.15q4.7 0.7 7.42 3.67 2.73 2.98 2.73 7.13 0 5.55-3.78 8.65-3.77 3.1-11.07 3.1-2 0-6.48-0.32-4.47-0.33-7.12-0.33-0.3 0-0.95 0.03-0.65 0.02-0.95 0.02-0.3-0.9 0-1.8l4.15-0.55q0.2-1.9 0.2-5.85v-29.45l-4.05-0.5q-0.2-0.75 0-1.85zm13.4 19.65h-4v18.1q2.55 0.45 4.05 0.55 6.05 0 8.35-2.28 2.3-2.27 2.3-7.12 0-3.9-2.83-6.58-2.82-2.67-7.87-2.67zm0.35-17.95q-2.5 0-4.15 0.35-0.2 1.9-0.2 6.25v8.85h3.9q4.65 0 6.77-1.9 2.13-1.9 2.13-5.65 0-3.8-2.33-5.85-2.32-2.05-6.12-2.05zm44.54 11.55v19.6q0 3.35 0.15 4.7l3.95 0.5q0.15 0.8 0 1.9-3.65 0.15-7.6 0.7-0.35-0.35-0.5-0.95l-0.25-4.45q-2.1 2.7-4.32 4.2-2.23 1.5-5.23 1.5-3.05 0-5.12-1.55-2.08-1.55-2.08-5.3v-11.1q0-5.7-0.15-7.3l-3.95-0.5q-0.2-0.75 0-1.9 3.45-0.25 8.6-1.05 0.45 0.5 0.5 1-0.25 1.3-0.25 18.35 0 3.5 0.83 4.97 0.82 1.48 3.07 1.48 4.2 0 7.6-5v-10.1q0-5.65-0.15-7.25l-3.95-0.5q-0.2-0.75 0-1.9 3-0.2 8.35-1.05 0.45 0.5 0.5 1zm31.25-5v24.6q0 3.35 0.15 4.7l3.95 0.5q0.15 0.8 0 1.9-3.65 0.15-7.6 0.7-0.35-0.35-0.5-0.95l-0.25-3.2q-1.75 2.05-4.35 3.27-2.6 1.23-5.45 1.23-4.35 0-7.2-3.63-2.85-3.62-2.85-9.67 0-7 3.73-11.23 3.72-4.22 8.92-4.22 4.1 0 6.7 1.95v-6.7q0-3.3-0.15-4.9l-3.95-0.5q-0.2-0.75 0-1.9 3.45-0.25 8.6-1.05 0.45 0.5 0.5 1-0.25 1.3-0.25 8.1zm-11.85 6.7q-3.25 0-5.2 3.42-1.95 3.43-1.95 9.48 0 4.95 1.83 7.55 1.82 2.6 4.82 2.6 1.8 0 3.95-1.13 2.15-1.12 3.65-3.12v-16q-2.45-2.8-7.1-2.8zm43.1-6.7v24.6q0 3.35 0.15 4.7l3.95 0.5q0.15 0.8 0 1.9-3.65 0.15-7.6 0.7-0.35-0.35-0.5-0.95l-0.25-3.2q-1.75 2.05-4.35 3.27-2.6 1.23-5.45 1.23-4.35 0-7.2-3.63-2.85-3.62-2.85-9.67 0-7 3.72-11.23 3.73-4.22 8.93-4.22 4.1 0 6.7 1.95v-6.7q0-3.3-0.15-4.9l-3.95-0.5q-0.2-0.75 0-1.9 3.45-0.25 8.6-1.05 0.45 0.5 0.5 1-0.25 1.3-0.25 8.1zm-11.85 6.7q-3.25 0-5.2 3.42-1.95 3.43-1.95 9.48 0 4.95 1.82 7.55 1.83 2.6 4.83 2.6 1.8 0 3.95-1.13 2.15-1.12 3.65-3.12v-16q-2.45-2.8-7.1-2.8zm21.9 16.3v-23.75q0-3.3-0.15-4.9l-3.95-0.5q-0.2-0.75 0-1.9 3.35-0.25 8.55-1.05 0.45 0.5 0.5 1-0.25 1.3-0.25 8.1v9.45q3.7-5.1 8.9-5.1 3.1 0 5.3 1.55t2.2 5.3v17.95l4.05 0.75q0.2 0.8 0 2-3.15-0.15-6.4-0.15-2.3 0-6.5 0.1-0.3-0.95 0-1.95l3.95-0.55q0.2-2.75 0.2-6.35v-9.3q0-3.5-0.88-5.05-0.87-1.55-3.17-1.55-1.9 0-3.98 1.4-2.07 1.4-3.67 4.05v16.6l4.05 0.75q0.2 0.8 0 2-3.15-0.15-6.4-0.15-2.3 0-6.5 0.1-0.3-0.95 0-1.95l3.95-0.55q0.2-2.75 0.2-6.35zm36.34-9.9v16.05l4.05 0.75q0.05 0.25 0.08 0.45 0.02 0.2 0.02 0.45t-0.02 0.52q-0.03 0.28-0.08 0.58-3.15-0.15-6.45-0.15-1.15 0-2.77 0.03-1.63 0.02-3.73 0.07-0.15-0.45-0.15-0.95 0-0.45 0.15-1l3.95-0.55q0.1-1.4 0.15-2.98 0.05-1.57 0.05-3.37v-10.65q0-3.3-0.15-4.9l-3.95-0.5q-0.1-0.25-0.1-0.85 0-0.25 0-0.5t0.1-0.55q3.4-0.2 8.6-1.05 0.45 0.5 0.5 1-0.25 1.4-0.25 8.1zm-7.3-17.85q-0.1-0.25-0.1-0.53 0-0.27 0-0.52 0-1.35 1.13-2.18 1.12-0.82 2.77-0.82 1.55 0 2.53 0.92 0.97 0.93 0.97 2.53 0 1.3-1.12 2.1-1.13 0.8-2.88 0.8-1.2 0-2.12-0.6-0.93-0.6-1.18-1.7zm23.5 35.25q2.7 0 4-1.25t1.3-2.9q0-0.95-0.3-1.75t-0.97-1.55q-0.68-0.75-1.78-1.48-1.1-0.72-2.75-1.57-2.05-1.05-3.52-2-1.48-0.95-2.43-2t-1.42-2.25q-0.48-1.2-0.48-2.7 0-1.8 0.65-3.13 0.65-1.32 1.83-2.2 1.17-0.87 2.77-1.3 1.6-0.42 3.55-0.42 3.9 0 7.6 1.9v6.4h-2.35l-1.1-5.4q-2.2-1.05-4.65-1.05-4.1 0-4.1 3.35 0 1.8 1.35 3.3t4.35 3q2.05 1.05 3.6 2t2.58 2q1.02 1.05 1.55 2.27 0.52 1.23 0.52 2.78 0 1.75-0.75 3.25t-2.1 2.57q-1.35 1.08-3.25 1.71-1.9 0.62-4.2 0.62-4.45 0-8.35-1.9v-6.4h2.35l1.1 4.95q2.55 1.15 5.4 1.15zm21.4-31.5v7.15h7.05q0.1 0.6 0.1 0.9 0 0.45-0.1 1.05l-7.05 1.05v13.75q0 3.7 0.67 5.22 0.68 1.53 2.13 1.53 1.3 0 4.05-1.05 0.5 0.45 0.7 1.7-1.5 0.9-2.28 1.32-0.77 0.43-1.95 0.76-1.17 0.32-2.47 0.32-2.5 0-4.08-1.93-1.57-1.92-1.57-5.87v-16.35l-3.5-0.45q-0.1-0.5-0.1-0.85 0-0.4 0.1-1.1 1.4-0.25 2.42-0.88 1.03-0.62 1.73-1.75 0.7-1.12 1.07-2 0.38-0.87 0.93-2.52 0.45-0.15 1.1-0.15 0.6 0 1.05 0.15zm31.14 18.05-4.45 12.45 4.05 0.5q0.2 0.75 0 1.85-3.15-0.15-5.3-0.15-1.2 0-5.4 0.1-0.3-0.9 0-1.8l3.3-0.6q0.8-1.2 2-4.45l12.9-34.5h1.75l14.5 39.05 4.05 0.5q0.2 0.75 0 1.85-3.15-0.15-7.05-0.15-2.9 0-7.1 0.1-0.3-0.9 0-1.8l4.15-0.6-4.4-12.35h-13zm6.65-19.05h-0.05q-0.6 2.35-1.95 6.15l-3.75 10.4h11.2l-3.65-10.4q-1.05-3.05-1.8-6.15zm30.9 32.5q2.7 0 4-1.25t1.3-2.9q0-0.95-0.3-1.75t-0.97-1.55q-0.68-0.75-1.78-1.48-1.1-0.72-2.75-1.57-2.05-1.05-3.52-2-1.48-0.95-2.43-2t-1.42-2.25q-0.48-1.2-0.48-2.7 0-1.8 0.65-3.13 0.65-1.32 1.83-2.2 1.17-0.87 2.77-1.3 1.6-0.42 3.55-0.42 3.9 0 7.6 1.9v6.4h-2.35l-1.1-5.4q-2.2-1.05-4.65-1.05-4.1 0-4.1 3.35 0 1.8 1.35 3.3t4.35 3q2.05 1.05 3.6 2t2.58 2q1.02 1.05 1.55 2.27 0.52 1.23 0.52 2.78 0 1.75-0.75 3.25t-2.1 2.57q-1.35 1.08-3.25 1.71-1.9 0.62-4.2 0.62-4.45 0-8.35-1.9v-6.4h2.35l1.1 4.95q2.55 1.15 5.4 1.15zm23 0q2.7 0 4-1.25t1.3-2.9q0-0.95-0.3-1.75t-0.98-1.55q-0.67-0.75-1.77-1.48-1.1-0.72-2.75-1.57-2.05-1.05-3.53-2-1.47-0.95-2.42-2t-1.43-2.25q-0.47-1.2-0.47-2.7 0-1.8 0.65-3.13 0.65-1.32 1.82-2.2 1.18-0.87 2.78-1.3 1.6-0.42 3.55-0.42 3.9 0 7.6 1.9v6.4h-2.35l-1.1-5.4q-2.2-1.05-4.65-1.05-4.1 0-4.1 3.35 0 1.8 1.35 3.3t4.35 3q2.05 1.05 3.6 2t2.57 2q1.03 1.05 1.55 2.27 0.53 1.23 0.53 2.78 0 1.75-0.75 3.25t-2.1 2.57q-1.35 1.08-3.25 1.71-1.9 0.62-4.2 0.62-4.45 0-8.35-1.9v-6.4h2.35l1.1 4.95q2.55 1.15 5.4 1.15zm14.05-12.1q0-3 0.87-5.63 0.88-2.62 2.53-4.57t3.97-3.08q2.33-1.12 5.23-1.12 2.85 0 5.2 1.12 2.35 1.13 4.02 3.08 1.68 1.95 2.58 4.57 0.9 2.63 0.9 5.63 0 3.1-0.93 5.7-0.92 2.6-2.6 4.52-1.67 1.93-4.02 3-2.35 1.08-5.15 1.08-2.95 0-5.28-1.05-2.32-1.05-3.95-2.95-1.62-1.9-2.5-4.53-0.87-2.62-0.87-5.77zm7.3-9.2q-2.15 3.05-2.15 9.2 0 3.05 0.57 5.35 0.58 2.3 1.58 3.82 1 1.53 2.35 2.28t2.95 0.75q1.55 0 2.95-0.75t2.4-2.28q1-1.52 1.6-3.82t0.6-5.35-0.6-5.38q-0.6-2.32-1.63-3.85-1.02-1.52-2.4-2.3-1.37-0.77-2.92-0.77-3.1 0-5.3 3.1zm44.04 2.2q-1.05 1.1-4.95 1.05-0.8-6.3-4.55-6.3-2.95 0-5 3.4t-2.05 8.95q0 5.7 1.8 8.78 1.8 3.07 5.4 3.07 3.8 0 7.45-3.1 0.75 0.45 1.15 1.55-3.65 3.9-9.15 3.9-5.25 0-8.6-3.63-3.35-3.62-3.35-10.67 0-6.75 3.73-10.58 3.72-3.82 8.52-3.82 3.8 0 6.7 1.9t2.9 5.5zm12.1 1.7v16.05l4.05 0.75q0.05 0.25 0.08 0.45 0.02 0.2 0.02 0.45t-0.02 0.52q-0.03 0.28-0.08 0.58-3.15-0.15-6.45-0.15-1.15 0-2.77 0.03-1.63 0.02-3.73 0.07-0.15-0.45-0.15-0.95 0-0.45 0.15-1l3.95-0.55q0.1-1.4 0.15-2.98 0.05-1.57 0.05-3.37v-10.65q0-3.3-0.15-4.9l-3.95-0.5q-0.1-0.25-0.1-0.85 0-0.25 0-0.5t0.1-0.55q3.4-0.2 8.6-1.05 0.45 0.5 0.5 1-0.25 1.4-0.25 8.1zm-7.3-17.85q-0.1-0.25-0.1-0.53 0-0.27 0-0.52 0-1.35 1.13-2.18 1.12-0.82 2.77-0.82 1.55 0 2.53 0.92 0.97 0.93 0.97 2.53 0 1.3-1.12 2.1-1.13 0.8-2.88 0.8-1.2 0-2.12-0.6-0.93-0.6-1.18-1.7zm19.15 29.8q0 2.6 0.95 3.67 0.95 1.08 3 1.08 1.5 0 3.32-0.93 1.83-0.92 3.38-2.67v-7.8q-5.15 0.3-7.9 1.82-2.75 1.53-2.75 4.83zm10.65-8.45v-2.55q0-4.25-0.98-6.18-0.97-1.92-3.22-1.92-2.3 0-3.7 1.47-1.4 1.48-1.9 5.03-1.6 0.35-2.35 0.35-1.95 0-2.3-1.4 0-3.4 2.95-5.4t7.35-2q4.85 0 6.87 1.97 2.03 1.98 2.03 7.08v14.1q0 1.25 0.15 2.15l3.95 0.5q0.2 0.75 0 1.9-3.55 0.15-7.55 0.7-0.4-0.4-0.5-1l-0.25-3.45q-4.15 4.75-9.25 4.75-3.15 0-4.93-1.8-1.77-1.8-1.77-4.85 0-4.6 4.17-6.95 4.18-2.35 11.23-2.5zm18.8-17.6v7.15h7.04q0.11 0.6 0.11 0.9 0 0.45-0.11 1.05l-7.04 1.05v13.75q0 3.7 0.67 5.22 0.68 1.53 2.12 1.53 1.31 0 4.06-1.05 0.5 0.45 0.69 1.7-1.5 0.9-2.27 1.32-0.77 0.43-1.95 0.76-1.17 0.32-2.47 0.32-2.5 0-4.08-1.93-1.57-1.92-1.57-5.87v-16.35l-3.5-0.45q-0.1-0.5-0.1-0.85 0-0.4 0.1-1.1 1.4-0.25 2.42-0.88 1.03-0.62 1.73-1.75 0.69-1.12 1.07-2 0.37-0.87 0.93-2.52 0.44-0.15 1.1-0.15 0.59 0 1.05 0.15zm18.69 14.1v16.05l4.05 0.75q0.05 0.25 0.08 0.45 0.02 0.2 0.02 0.45t-0.02 0.52q-0.03 0.28-0.08 0.58-3.15-0.15-6.45-0.15-1.15 0-2.77 0.03-1.63 0.02-3.73 0.07-0.15-0.45-0.15-0.95 0-0.45 0.15-1l3.95-0.55q0.1-1.4 0.15-2.98 0.05-1.57 0.05-3.37v-10.65q0-3.3-0.15-4.9l-3.95-0.5q-0.1-0.25-0.1-0.85 0-0.25 0-0.5t0.1-0.55q3.4-0.2 8.6-1.05 0.45 0.5 0.5 1-0.25 1.4-0.25 8.1zm-7.3-17.85q-0.1-0.25-0.1-0.53 0-0.27 0-0.52 0-1.35 1.13-2.18 1.12-0.82 2.77-0.82 1.55 0 2.53 0.92 0.97 0.93 0.97 2.53 0 1.3-1.12 2.1-1.13 0.8-2.88 0.8-1.2 0-2.12-0.6-0.93-0.6-1.18-1.7zm14.55 23.15q0-3 0.87-5.63 0.88-2.62 2.53-4.57t3.97-3.08q2.33-1.12 5.23-1.12 2.85 0 5.2 1.12 2.35 1.13 4.02 3.08 1.68 1.95 2.58 4.57 0.9 2.63 0.9 5.63 0 3.1-0.93 5.7-0.92 2.6-2.6 4.52-1.67 1.93-4.02 3-2.35 1.08-5.15 1.08-2.95 0-5.28-1.05-2.32-1.05-3.95-2.95-1.62-1.9-2.5-4.53-0.87-2.62-0.87-5.77zm7.3-9.2q-2.15 3.05-2.15 9.2 0 3.05 0.57 5.35 0.58 2.3 1.58 3.82 1 1.53 2.35 2.28t2.95 0.75q1.55 0 2.95-0.75t2.4-2.28q1-1.52 1.6-3.82t0.6-5.35-0.6-5.38q-0.6-2.32-1.63-3.85-1.02-1.52-2.4-2.3-1.37-0.77-2.92-0.77-3.1 0-5.3 3.1zm42.45 13.8v-9.15q0-3.85-1.03-5.4-1.02-1.55-3.42-1.55-3.7 0-7.45 5.55v16.7l4.05 0.75q0.2 0.8 0 2-3.15-0.15-6.45-0.15-2.3 0-6.5 0.1-0.3-0.95 0-1.95l3.95-0.55q0.2-2.75 0.2-6.35v-13.7q0-1-0.15-1.85l-3.95-0.5q-0.2-0.75 0-1.9 3.45-0.25 8.6-1.05 0.45 0.5 0.5 1-0.25 1.3-0.25 4.45 3.95-5.45 8.9-5.45 7.75 0 7.75 7.35v17.8l4.05 0.75q0.2 0.8 0 2-3.15-0.15-6.45-0.15-2.3 0-6.5 0.1-0.3-0.95 0-1.95l3.95-0.55q0.2-2.75 0.2-6.35zm23.99-4.6q0-3 0.88-5.63 0.87-2.62 2.52-4.57t3.98-3.08q2.32-1.12 5.22-1.12 2.85 0 5.2 1.12 2.35 1.13 4.03 3.08 1.67 1.95 2.57 4.57 0.9 2.63 0.9 5.63 0 3.1-0.92 5.7-0.93 2.6-2.6 4.52-1.68 1.93-4.03 3-2.35 1.08-5.15 1.08-2.95 0-5.27-1.05-2.33-1.05-3.95-2.95-1.63-1.9-2.5-4.53-0.88-2.62-0.88-5.77zm7.3-9.2q-2.15 3.05-2.15 9.2 0 3.05 0.58 5.35 0.57 2.3 1.57 3.82 1 1.53 2.35 2.28t2.95 0.75q1.55 0 2.95-0.75t2.4-2.28q1-1.52 1.6-3.82t0.6-5.35-0.6-5.38q-0.6-2.32-1.62-3.85-1.03-1.52-2.4-2.3-1.38-0.77-2.93-0.77-3.1 0-5.3 3.1zm34-18.3q7.45 0 7.45 5.9-1.05 1.1-5 1.05-0.5-5.25-2.55-5.25-1.9 0-2.68 3.02-0.77 3.03-0.77 11.03h7.05q0.3 0.95 0 1.95l-7.05 1.05v19.25l6.05 1q0.3 1 0 2-3.15-0.15-7.75-0.15-2.7 0-6.9 0.1-0.4-0.9 0-1.95l3.65-0.8q0.2-2.65 0.2-6.1v-13.85l-3.55-0.55q-0.3-1 0-1.95h3.55v-3.4q0-3 0.85-5.73 0.85-2.72 2.82-4.67 1.98-1.95 4.63-1.95zm57.69 32.65v-28.75l-15.1 38.4h-1.3l-14.55-37.15v27.5q0 3.95 0.2 5.85l4.65 0.6q0.3 0.9 0 1.8-4.3-0.1-6.1-0.1-3 0-6.05 0.15-0.2-1.1 0-1.85l4.55-0.5v-29.45q0-3.95-0.2-5.85l-4.15-0.6q-0.3-0.85 0-1.7h11l12.55 32.9 12.85-32.9q1.15 0.05 3.5 0.05 0.5 0 7.85-0.15 0.3 0.9 0 1.8l-4.15 0.6q-0.2 1.9-0.2 5.85v29.45l4.05 0.5q0.2 0.75 0 1.85-3.15-0.15-6.85-0.15-2.7 0-6.9 0.1-0.3-1.25 0-1.8l4.15-0.6q0.2-1.9 0.2-5.85zm22.5-10.45v16.05l4.05 0.75q0.05 0.25 0.08 0.45 0.02 0.2 0.02 0.45t-0.02 0.52q-0.03 0.28-0.08 0.58-3.15-0.15-6.45-0.15-1.15 0-2.77 0.03-1.63 0.02-3.73 0.07-0.15-0.45-0.15-0.95 0-0.45 0.15-1l3.95-0.55q0.1-1.4 0.15-2.98 0.05-1.57 0.05-3.37v-10.65q0-3.3-0.15-4.9l-3.95-0.5q-0.1-0.25-0.1-0.85 0-0.25 0-0.5t0.1-0.55q3.4-0.2 8.6-1.05 0.45 0.5 0.5 1-0.25 1.4-0.25 8.1zm-7.3-17.85q-0.1-0.25-0.1-0.53 0-0.27 0-0.52 0-1.35 1.13-2.18 1.12-0.82 2.77-0.82 1.55 0 2.53 0.92 0.97 0.93 0.97 2.53 0 1.3-1.12 2.1-1.13 0.8-2.88 0.8-1.2 0-2.12-0.6-0.93-0.6-1.18-1.7zm34.7 27.75v-9.15q0-3.85-1.03-5.4-1.02-1.55-3.42-1.55-3.7 0-7.45 5.55v16.7l4.05 0.75q0.2 0.8 0 2-3.15-0.15-6.45-0.15-2.3 0-6.5 0.1-0.3-0.95 0-1.95l3.95-0.55q0.2-2.75 0.2-6.35v-13.7q0-1-0.15-1.85l-3.95-0.5q-0.2-0.75 0-1.9 3.45-0.25 8.6-1.05 0.45 0.5 0.5 1-0.25 1.3-0.25 4.45 3.95-5.45 8.9-5.45 7.75 0 7.75 7.35v17.8l4.05 0.75q0.2 0.8 0 2-3.15-0.15-6.45-0.15-2.3 0-6.5 0.1-0.3-0.95 0-1.95l3.95-0.55q0.2-2.75 0.2-6.35zm31.85 0v-9.15q0-3.85-1.03-5.4-1.02-1.55-3.42-1.55-3.7 0-7.45 5.55v16.7l4.05 0.75q0.2 0.8 0 2-3.15-0.15-6.45-0.15-2.3 0-6.5 0.1-0.3-0.95 0-1.95l3.95-0.55q0.2-2.75 0.2-6.35v-13.7q0-1-0.15-1.85l-3.95-0.5q-0.2-0.75 0-1.9 3.45-0.25 8.6-1.05 0.45 0.5 0.5 1-0.25 1.3-0.25 4.45 3.95-5.45 8.9-5.45 7.75 0 7.75 7.35v17.8l4.05 0.75q0.2 0.8 0 2-3.15-0.15-6.45-0.15-2.3 0-6.5 0.1-0.3-0.95 0-1.95l3.95-0.55q0.2-2.75 0.2-6.35zm32.59-5.4h-15.7q-0.45 12.75 7.65 12.75 3.45 0 7.05-3.05 0.75 0.45 1.15 1.55-3.45 3.85-8.75 3.85-12.2 0-12.2-14.35 0-6.8 3.6-10.58 3.6-3.77 8.4-3.77 5.25 0 7.55 3.65t2.3 9.5q-0.5 0.4-1.05 0.45zm-8.9-11.6q-2.6 0-4.42 2.7-1.83 2.7-2.23 6.9h6.2q3.7 0 5.3-0.45 0-4.1-1.25-6.63-1.25-2.52-3.6-2.52zm23.2 24.5q2.7 0 4-1.25t1.3-2.9q0-0.95-0.3-1.75t-0.97-1.55q-0.68-0.75-1.78-1.48-1.1-0.72-2.75-1.57-2.05-1.05-3.52-2-1.48-0.95-2.43-2t-1.42-2.25q-0.48-1.2-0.48-2.7 0-1.8 0.65-3.13 0.65-1.32 1.83-2.2 1.17-0.87 2.77-1.3 1.6-0.42 3.55-0.42 3.9 0 7.6 1.9v6.4h-2.35l-1.1-5.4q-2.2-1.05-4.65-1.05-4.1 0-4.1 3.35 0 1.8 1.35 3.3t4.35 3q2.05 1.05 3.6 2t2.58 2q1.02 1.05 1.55 2.27 0.52 1.23 0.52 2.78 0 1.75-0.75 3.25t-2.1 2.57q-1.35 1.08-3.25 1.71-1.9 0.62-4.2 0.62-4.45 0-8.35-1.9v-6.4h2.35l1.1 4.95q2.55 1.15 5.4 1.15zm14.05-12.1q0-3 0.87-5.63 0.88-2.62 2.53-4.57t3.97-3.08q2.33-1.12 5.23-1.12 2.85 0 5.2 1.12 2.35 1.13 4.02 3.08 1.68 1.95 2.58 4.57 0.9 2.63 0.9 5.63 0 3.1-0.93 5.7-0.92 2.6-2.6 4.52-1.67 1.93-4.02 3-2.35 1.08-5.15 1.08-2.95 0-5.28-1.05-2.32-1.05-3.95-2.95-1.62-1.9-2.5-4.53-0.87-2.62-0.87-5.77zm7.3-9.2q-2.15 3.05-2.15 9.2 0 3.05 0.57 5.35 0.58 2.3 1.58 3.82 1 1.53 2.35 2.28t2.95 0.75q1.55 0 2.95-0.75t2.4-2.28q1-1.52 1.6-3.82t0.6-5.35-0.6-5.38q-0.6-2.32-1.63-3.85-1.02-1.52-2.4-2.3-1.37-0.77-2.92-0.77-3.1 0-5.3 3.1zm29.65-10.2v7.15h7.05q0.1 0.6 0.1 0.9 0 0.45-0.1 1.05l-7.05 1.05v13.75q0 3.7 0.67 5.22 0.68 1.53 2.13 1.53 1.3 0 4.05-1.05 0.5 0.45 0.7 1.7-1.5 0.9-2.28 1.32-0.77 0.43-1.95 0.76-1.17 0.32-2.47 0.32-2.5 0-4.08-1.93-1.57-1.92-1.57-5.87v-16.35l-3.5-0.45q-0.1-0.5-0.1-0.85 0-0.4 0.1-1.1 1.4-0.25 2.42-0.88 1.03-0.62 1.73-1.75 0.7-1.12 1.07-2 0.38-0.87 0.93-2.52 0.45-0.15 1.1-0.15 0.6 0 1.05 0.15zm15.04 26.05q0 2.6 0.95 3.67 0.95 1.08 3 1.08 1.5 0 3.33-0.93 1.82-0.92 3.37-2.67v-7.8q-5.15 0.3-7.9 1.82-2.75 1.53-2.75 4.83zm10.65-8.45v-2.55q0-4.25-0.97-6.18-0.98-1.92-3.23-1.92-2.3 0-3.7 1.47-1.4 1.48-1.9 5.03-1.6 0.35-2.35 0.35-1.95 0-2.3-1.4 0-3.4 2.95-5.4t7.35-2q4.85 0 6.88 1.97 2.02 1.98 2.02 7.08v14.1q0 1.25 0.15 2.15l3.95 0.5q0.2 0.75 0 1.9-3.55 0.15-7.55 0.7-0.4-0.4-0.5-1l-0.25-3.45q-4.15 4.75-9.25 4.75-3.15 0-4.92-1.8-1.78-1.8-1.78-4.85 0-4.6 4.18-6.95 4.17-2.35 11.22-2.5z" fill="#0e63ae" data-fill-palette-color="primary"/>
</svg>
</g>
</svg>
</svg>
</svg>
</g>
<g transform="translate(166.69)">
<svg width="62.138" height="62.138" viewBox="0 0 62.13801994921279 62.13801994921279">
<svg width="62.138" height="62.138" viewBox="0 0 62.13801994921279 62.13801994921279">
<g transform="translate(17.954 16.423)">
<svg width="26.23" height="29.292" viewBox="0 0 26.230428898180097 29.29214351706222">
<svg class="icon-dxe-0" width="26.23" height="29.292" enable-background="new 0 0 66 66" data-fill-palette-color="accent" version="1.1" viewBox="4.3894980046208785 1 57.31050199537913 64" xml:space="preserve" xmlns="http://www.w3.org/2000/svg" xmlns:xlink="http://www.w3.org/1999/xlink"><g fill="#7a26c1" data-fill-palette-color="accent"><path d="m25 40.9 4.2 1.3h0.3c0.4 0 0.8-0.3 0.9-0.7 0.2-0.5-0.1-1.1-0.6-1.2l-3.4-1.1 0.9-5c0.2-1.3-1.7-1.6-1.9-0.3l-1 5.8c-0.1 0.6 0.2 1 0.6 1.2" data-fill-palette-color="accent"/><path d="m56.5 56.4c-0.1-1.7-1.3-4.8-5.4-5.6 0.3-0.7 0.5-1.4 0.5-2.2 0-2.6-2.3-4.6-4.8-5.1 6-4.3 9.7-11.4 9.7-19 0.1-13.1-10.5-23.5-23.3-23.5h-0.3c-12.8 0.2-23 10.7-23 23.5 0 7.4 3.5 14.5 9.7 19-3.5 0.6-4.8 2.7-4.8 5.1 0 0.8 0.2 1.5 0.5 2.2-4.1 0.8-5.4 3.8-5.5 5.5-5.9 1.7-5.4 7.6-5.4 7.7 0 0.5 0.4 1 1 1h55.3c0.5 0 1-0.4 1-1-0.1-0.1 0.4-5.7-5.2-7.6m-24.3-10.6c-2-1.9 3.3-2.2 8.8-3.2 0.5-0.1 0.8-0.5 0.8-1l-0.8-8.9c0.4-1.3 0.8-2.5 1-3.3 0.5 0.6 0.9 1.3 1.1 2.4 1.4 7.9 2.1 9.8 1.1 11.2-6.3 3.8-12.1 2.8-12 2.8m-12.8-4.8c-0.2-0.2-0.4-0.4-0.7-0.6l0.9-0.9s-0.2 1.4-0.2 1.5m-5.5-7.3 7.3-3.1c-0.2 0.8-0.1 0.2-1 5.5l-2.8 2.9c-1.4-1.6-2.6-3.4-3.5-5.3m-1.1-15.7 15.3 5.7-16.3 0.4c0-2.1 0.4-4.2 1-6.1m3.9-7.3 12 11.1-15.2-5.6c0.8-2 1.9-3.8 3.2-5.5m35.9 4.6-15.2 6.4 11.7-11.7c1.4 1.6 2.6 3.4 3.5 5.3m2 7.7-16.3 0.4 15-6.3c0.7 1.8 1.1 3.8 1.3 5.9m-1 8-15.4-5.7 16.4-0.4c0 2.1-0.3 4.2-1 6.1m-4 7.4-4.1-3.8c-0.2-1.3-0.4-2.2-0.5-2.8v-0.3c-0.1-0.7-0.3-1.3-0.5-1.9l8.6 3.2c-1 2.1-2.1 3.9-3.5 5.6m-3.1 3c0-1.2-0.2-1.5-0.5-3.6l2.2 2.1c-0.5 0.5-1.1 1-1.7 1.5m-16.3-21.1c-1-1.5-1.1-3.5-0.4-5.1 0.7-1.5 1.8-2.3 3.1-2.3 1.5 0 2.9 1.2 3.4 3 0.5 1.6 0.2 3.4-0.8 4.6-1.3 2-3.9 2-5.3-0.2m2.8-10.3c0.1 0.1 0.3 0.4 0.6 1-0.2 0-0.4-0.1-0.6-0.1h-0.5c0.1-0.4 0.3-0.8 0.5-0.9m5.5 7.8c0-0.7 0-1.4-0.2-2.1l4.4-10.5c1.8 0.9 3.5 2.1 5 3.4zm-1.2-4.5c-0.4-0.5-0.8-1-1.3-1.3-0.4-1.5-1.1-3-2.1-3.7v-5.3c2.4 0 4.8 0.5 7.1 1.4zm-5.3-5c-1 0.8-1.6 2.5-1.9 3.6-0.3 0.2-0.6 0.5-0.9 0.8l-3.6-8.3c2-0.8 4.1-1.3 6.4-1.4zm-20.1 17.7 16.2-0.4-1.1 0.5c-1.7 0.1-3.2 0.7-4.2 1.8l-9.6 4.1c-0.8-2-1.2-4-1.3-6m9.8 16.8c-0.4-0.7-0.4-1.2-0.3-1.8 1.8-10 0.9-12.3 6.1-13 2.3-0.2 4.1-2.1 4.4-4.2 0.8 0.2 1.6 0.2 2.3 0 0.2 1.5 1 2.8 2.5 3.6-0.8 4-3.1 8.1-7.1 9.4-0.6 0.2-0.9 0.7-0.7 1.2s0.7 0.8 1.2 0.6c5.7-2 7.7-7.9 8.3-10.7h0.3c0.2 0 0.8 0 1.5 0.3-0.2 1-0.6 2.4-1.2 4-0.9 2.4-2 4.9-3.4 5.9-0.4 0.3-0.5 0.9-0.2 1.4 0.3 0.4 0.9 0.5 1.4 0.2 1-0.7 1.9-1.9 2.6-3.3l0.4 4.5c-2.7 0.7-11.3 0.7-9.9 4.9-4.3-0.3-7.2-1.3-8.2-3m2-37.6 4.2 9.6c-0.4 1-0.5 2.1-0.5 3.2l-9.4-8.7c1.7-1.7 3.6-3 5.7-4.1m-2.3 40.1c3 2.4 9.6 2.6 10.1 2.4 1.5 0.6 9.9 0.2 13.1-2.4 0.4 0.1-0.1 0 1.2 0 3.1 0 5.3 3.3 3 5.6-1.7 1.7-1.5 0.6-28.8 1-1.8 0-3.3-1.5-3.3-3.2 0-3.6 4.2-3.2 4.7-3.4m-5 7.1c0.9 0.9 2.2 1.4 3.6 1.4 26.5-0.5 27.3 1 30-1.4 0.5 0.4 3.9 0.4 4.6 3.6h-42.8c0.6-3.2 4.1-3.1 4.6-3.6m-10.1 10.7c0.2-2.8 2.6-5.1 5.5-5.1h42.3c2.9 0 5.3 2.2 5.5 5.1z" data-fill-palette-color="accent"/></g></svg>
</svg>
</g>
<g fill="#7a26c1">
<path d="m1.723 21.574 0.514 0.789 1.257-0.455c0.167-0.049 0.311-0.106 0.432-0.169l0.11-0.248c0.037-3e-3 0.078 6e-3 0.122 0.027-0.111 0.334-0.179 0.541-0.204 0.619-0.051 0.165-0.089 0.298-0.113 0.399-0.037 3e-3 -0.078-6e-3 -0.121-0.027l0.036-0.292c-0.046 7e-3 -0.186 0.051-0.419 0.13l-0.947 0.324-0.058 0.187 1.137 0.353 0.122-0.254c0.037-3e-3 0.077 9e-3 0.119 0.037-0.05 0.136-0.1 0.287-0.151 0.451-0.037 0.119-0.081 0.271-0.131 0.458-0.044 1e-3 -0.083-0.011-0.119-0.037l0.036-0.292c-0.077-0.031-0.205-0.074-0.382-0.13l-1.967-0.61-0.113 0.257c-0.037 3e-3 -0.08-0.01-0.128-0.04 0.05-0.115 0.104-0.264 0.161-0.448 0.049-0.158 0.093-0.311 0.131-0.458 0.044-1e-3 0.083 0.011 0.119 0.037l-0.047 0.289c0.084 0.033 0.211 0.076 0.383 0.129l0.652 0.203 0.055-0.178-0.786-1.166-0.113 0.258c-0.035-4e-3 -0.078-0.017-0.128-0.04 0.052-0.121 0.099-0.248 0.139-0.379 0.035-0.112 0.071-0.242 0.11-0.389 0.044-1e-3 0.083 0.011 0.119 0.037l-0.032 0.24c0.048 0.123 0.117 0.253 0.205 0.388z" data-fill-palette-color="accent"/>
<path d="m3.939 20.827c0.115 0.046 0.203 0.059 0.263 0.039s0.108-0.075 0.145-0.165c0.026-0.064 0.036-0.145 0.031-0.244-7e-3 -0.092-0.035-0.189-0.084-0.291l-0.509-0.204c-0.077 0.229-0.109 0.417-0.093 0.564 0.024 0.144 0.106 0.244 0.247 0.301zm-0.269-0.912-0.163-0.066c-0.186-0.075-0.329-0.106-0.43-0.095s-0.171 0.065-0.21 0.161-0.039 0.189-1e-3 0.279c0.041 0.083 0.133 0.169 0.276 0.256-0.013 0.069-0.027 0.123-0.042 0.162-0.034 0.083-0.082 0.12-0.145 0.109-0.147-0.059-0.24-0.171-0.278-0.335-0.032-0.162-0.01-0.335 0.065-0.521 0.085-0.211 0.187-0.345 0.306-0.401 0.126-0.054 0.297-0.036 0.515 0.051l0.912 0.367c0.058 0.023 0.107 0.039 0.148 0.049l0.13-0.238c0.037 0 0.079 0.017 0.125 0.05-0.055 0.156-0.105 0.326-0.15 0.509-0.024 5e-3 -0.051 6e-3 -0.078 2e-3l-0.229-0.07c0.133 0.262 0.155 0.501 0.068 0.719-0.057 0.141-0.139 0.234-0.247 0.28-0.112 0.037-0.231 0.03-0.36-0.022-0.198-0.08-0.313-0.23-0.343-0.45s0.013-0.486 0.131-0.796z" data-fill-palette-color="accent"/>
<path d="m3.607 18.083 0.313 0.162c-0.066-0.101-0.117-0.217-0.153-0.349s-0.034-0.239 4e-3 -0.32c0.033-0.068 0.068-0.124 0.104-0.168 0.04-4e-3 0.082 5e-3 0.125 0.026 0.068 0.033 0.129 0.081 0.183 0.145-0.055 0.066-0.098 0.133-0.131 0.201-0.084 0.174-0.069 0.358 0.045 0.551l0.546 0.274 0.476 0.229 0.217-0.332c0.034 9e-3 0.074 0.028 0.121 0.058-0.072 0.134-0.148 0.285-0.229 0.453-0.063 0.131-0.133 0.284-0.211 0.461-0.043-6e-3 -0.084-0.025-0.121-0.058l0.084-0.27c-0.109-0.06-0.241-0.128-0.397-0.202l-0.858-0.413c-0.044-0.021-0.085-0.037-0.125-0.049l-0.15 0.238c-0.034-9e-3 -0.074-0.028-0.121-0.058 0.059-0.155 0.126-0.349 0.2-0.582 0.028-0.01 0.054-9e-3 0.078 3e-3z" data-fill-palette-color="accent"/>
<path d="m5.626 16.167-0.535 0.958c0.508 0.307 0.853 0.298 1.034-0.027 0.081-0.145 0.098-0.325 0.053-0.54 0.035-0.02 0.081-0.026 0.139-0.017 0.076 0.232 0.055 0.454-0.062 0.665-0.279 0.5-0.711 0.587-1.296 0.26-0.277-0.155-0.452-0.351-0.524-0.589-0.07-0.229-0.051-0.439 0.056-0.632 0.121-0.217 0.282-0.328 0.484-0.335 0.198-0.016 0.418 0.044 0.659 0.178-1e-3 0.031-4e-3 0.057-8e-3 0.079zm-1.017 0.143c-0.061 0.108-0.054 0.231 0.02 0.367 0.065 0.139 0.178 0.261 0.34 0.368l0.212-0.379c0.084-0.151 0.134-0.261 0.15-0.332-0.163-0.091-0.312-0.142-0.447-0.155-0.133-3e-3 -0.224 0.041-0.275 0.131z" data-fill-palette-color="accent"/>
<path d="m7.038 14.689-0.533-0.356c-0.149-0.1-0.266-0.148-0.351-0.146-0.09-2e-3 -0.166 0.043-0.226 0.135-0.096 0.144-0.084 0.363 0.034 0.657l0.973 0.649 0.204-0.212c0.033 0.013 0.07 0.038 0.112 0.074-0.09 0.122-0.177 0.247-0.262 0.374-0.061 0.092-0.143 0.22-0.244 0.384-0.042-0.011-0.079-0.036-0.112-0.074l0.121-0.256c-0.1-0.075-0.221-0.16-0.365-0.255l-0.792-0.529c-0.04-0.027-0.079-0.049-0.118-0.066l-0.18 0.215c-0.033-0.013-0.07-0.038-0.112-0.074 0.08-0.145 0.173-0.328 0.278-0.549 0.029-6e-3 0.055-1e-3 0.078 0.015 0.038 0.042 0.121 0.105 0.247 0.189-0.109-0.297-0.1-0.54 0.026-0.729 0.203-0.304 0.448-0.361 0.735-0.169l1.033 0.689 0.198-0.204c0.033 0.013 0.07 0.038 0.112 0.075-0.086 0.117-0.173 0.241-0.261 0.373-0.057 0.086-0.137 0.211-0.239 0.376-0.042-0.011-0.079-0.036-0.112-0.074l0.115-0.247c-0.096-0.08-0.215-0.168-0.359-0.265z" data-fill-palette-color="accent"/>
<path d="m6.645 11.564c0.076-0.089 0.184-0.22 0.322-0.391 0.138-0.182 0.229-0.299 0.274-0.352l0.061-0.071c0.198-0.231 0.396-0.361 0.594-0.39 0.193-0.034 0.366 0.013 0.517 0.143 0.22 0.189 0.248 0.463 0.086 0.823l8e-3 7e-3c0.17-0.145 0.348-0.22 0.533-0.224 0.19-0.01 0.359 0.048 0.505 0.174 0.199 0.171 0.293 0.369 0.281 0.595-2e-3 0.225-0.116 0.469-0.34 0.73-0.058 0.068-0.162 0.179-0.313 0.333-0.145 0.148-0.258 0.269-0.339 0.364-9e-3 0.01-0.022 0.026-0.04 0.047s-0.031 0.037-0.04 0.047c-0.04-0.016-0.072-0.043-0.095-0.081l0.157-0.247c-0.058-0.059-0.158-0.149-0.299-0.271l-1.564-1.34-0.206 0.192c-0.035-0.012-0.069-0.041-0.102-0.088zm1.652 0.189-0.182 0.212 0.959 0.822c0.092-0.076 0.163-0.137 0.213-0.185 0.184-0.215 0.27-0.4 0.258-0.556-0.011-0.146-0.103-0.293-0.276-0.441-0.136-0.117-0.294-0.166-0.474-0.147s-0.346 0.117-0.498 0.295zm-0.938-0.831c-0.072 0.084-0.129 0.162-0.173 0.234 0.064 0.064 0.171 0.161 0.324 0.29l0.471 0.405 0.175-0.205c0.144-0.168 0.213-0.317 0.208-0.449-1e-3 -0.137-0.067-0.262-0.198-0.374-0.136-0.117-0.277-0.165-0.422-0.143-0.14 0.025-0.268 0.106-0.385 0.242z" data-fill-palette-color="accent"/>
<path d="m10.34 8.976 0.954 0.979c0.111 0.114 0.19 0.19 0.238 0.229l0.222-0.172c0.034 0.025 0.065 0.057 0.094 0.096-0.119 0.125-0.233 0.261-0.342 0.406-0.029 0-0.056-8e-3 -0.08-0.023l-0.224-0.216c0.013 0.161 8e-3 0.305-0.013 0.432-0.026 0.122-0.088 0.231-0.187 0.327-0.104 0.101-0.217 0.158-0.339 0.172-0.117 0.018-0.239-0.037-0.364-0.166l-0.535-0.548c-0.188-0.193-0.311-0.314-0.368-0.364l-0.215 0.166c-0.034-0.015-0.065-0.047-0.094-0.096 0.104-0.121 0.23-0.278 0.38-0.471 0.029 0 0.054 0.01 0.072 0.03 0.034 0.044 0.33 0.353 0.889 0.926 0.111 0.114 0.203 0.183 0.276 0.208 0.078 0.021 0.154-5e-3 0.227-0.077 0.138-0.135 0.182-0.342 0.133-0.621l-0.492-0.504c-0.183-0.188-0.304-0.306-0.361-0.356l-0.222 0.173c-0.029-0.02-0.06-0.052-0.094-0.096 0.099-0.106 0.223-0.261 0.372-0.464 0.029 0 0.054 0.01 0.073 0.03z" data-fill-palette-color="accent"/>
<path d="m12.006 7.087 1.099 1.321c0.101 0.122 0.175 0.205 0.219 0.248l0.227-0.148c0.032 0.027 0.06 0.062 0.086 0.103-0.123 0.111-0.247 0.237-0.373 0.378-0.024-7e-3 -0.047-0.019-0.07-0.036l-0.155-0.154c-2e-3 0.127-0.03 0.25-0.085 0.367-0.06 0.122-0.141 0.225-0.241 0.308-0.159 0.132-0.342 0.177-0.549 0.134-0.211-0.049-0.407-0.182-0.588-0.4-0.207-0.249-0.309-0.506-0.304-0.77 9e-3 -0.259 0.106-0.466 0.292-0.62 0.149-0.124 0.299-0.191 0.452-0.201l-0.298-0.358c-0.097-0.117-0.173-0.202-0.226-0.256l-0.241 0.147c-0.027-0.022-0.054-0.054-0.08-0.096 0.113-0.112 0.249-0.261 0.409-0.447 0.034 8e-3 0.057 0.02 0.07 0.036 0.034 0.052 0.153 0.2 0.356 0.444zm-0.339 0.887c-0.117 0.097-0.161 0.237-0.134 0.422 0.033 0.179 0.139 0.378 0.32 0.595 0.15 0.18 0.297 0.287 0.441 0.32 0.143 0.043 0.268 0.02 0.374-0.069 0.064-0.053 0.118-0.134 0.162-0.242 0.043-0.099 0.063-0.21 0.06-0.332l-0.715-0.86c-0.174-0.026-0.343 0.03-0.508 0.166z" data-fill-palette-color="accent"/>
<path d="m14.045 5.616 0.987 1.406c0.091 0.13 0.157 0.218 0.199 0.265l0.238-0.129c0.029 0.03 0.055 0.067 0.077 0.11-0.132 0.101-0.266 0.216-0.402 0.346-0.023-9e-3 -0.046-0.023-0.067-0.042l-0.142-0.166c-0.012 0.127-0.051 0.246-0.115 0.359-0.07 0.117-0.159 0.212-0.265 0.288-0.169 0.119-0.355 0.148-0.558 0.088-0.206-0.066-0.391-0.215-0.554-0.446-0.186-0.265-0.266-0.53-0.24-0.793 0.03-0.257 0.144-0.455 0.342-0.594 0.158-0.111 0.314-0.166 0.467-0.163l-0.268-0.381c-0.087-0.124-0.155-0.215-0.205-0.274l-0.252 0.127c-0.025-0.024-0.049-0.058-0.072-0.102 0.122-0.102 0.27-0.24 0.444-0.413 0.033 0.011 0.055 0.025 0.067 0.042 0.03 0.055 0.136 0.212 0.319 0.472zm-0.41 0.857c-0.124 0.087-0.18 0.224-0.168 0.409 0.018 0.181 0.108 0.388 0.27 0.619 0.135 0.192 0.273 0.31 0.414 0.355 0.139 0.054 0.265 0.041 0.378-0.038 0.068-0.048 0.128-0.124 0.181-0.228 0.051-0.095 0.08-0.204 0.087-0.327l-0.643-0.915c-0.171-0.04-0.345 2e-3 -0.519 0.125z" data-fill-palette-color="accent"/>
<path d="m15.723 6.454-0.836-1.43c-0.077-0.131-0.137-0.228-0.181-0.289l-0.254 0.1c-0.029-0.023-0.05-0.059-0.062-0.108 0.124-0.089 0.283-0.213 0.476-0.374 0.032 0.013 0.053 0.029 0.064 0.047 0.019 0.061 0.109 0.228 0.269 0.502l0.334 0.572c0.027-0.296 0.145-0.504 0.354-0.627 0.125-0.073 0.251-0.103 0.379-0.089 0.124 7e-3 0.232 0.088 0.322 0.243l0.632 1.081 0.267-0.096c0.029 0.023 0.052 0.062 0.068 0.116-0.129 0.067-0.258 0.139-0.389 0.216-0.089 0.052-0.219 0.132-0.388 0.238-0.033-0.029-0.055-0.068-0.068-0.116l0.22-0.177c-0.057-0.111-0.129-0.241-0.215-0.389l-0.329-0.563c-0.08-0.137-0.157-0.228-0.232-0.272-0.071-0.039-0.151-0.032-0.24 0.02-0.077 0.045-0.142 0.119-0.194 0.221-0.049 0.108-0.074 0.235-0.077 0.381l0.585 1.001 0.277-0.102c0.023 0.026 0.046 0.065 0.068 0.117-0.135 0.071-0.267 0.144-0.399 0.221-0.089 0.052-0.219 0.132-0.388 0.238-0.033-0.029-0.055-0.068-0.068-0.116l0.221-0.177c-0.057-0.111-0.129-0.241-0.216-0.389z" data-fill-palette-color="accent"/>
<path d="m17.811 4.497 0.509 1.007 0.282-0.084 0.014 0.028c3e-3 6e-3 8e-3 0.015 0.014 0.027l0.014 0.028c6e-3 0.012 0.012 0.025 0.018 0.037-0.139 0.062-0.276 0.128-0.411 0.196-0.049 0.025-0.106 0.058-0.171 0.098-0.068 0.034-0.145 0.073-0.231 0.117-0.015-0.015-0.028-0.032-0.037-0.051-9e-3 -0.018-0.017-0.042-0.023-0.07l0.231-0.163c-0.028-0.055-0.056-0.119-0.085-0.189-0.034-0.068-0.07-0.139-0.107-0.212l-0.336-0.666c-0.068-0.136-0.123-0.236-0.163-0.3l-0.264 0.098c-6e-3 -0.012-0.016-0.031-0.028-0.055-6e-3 -0.012-0.011-0.022-0.013-0.028-6e-3 -0.012-0.012-0.025-0.019-0.037 0.139-0.078 0.309-0.191 0.512-0.34 0.028 9e-3 0.048 0.026 0.061 0.051 0.016 0.062 0.094 0.231 0.233 0.508zm-1.012-0.88c-0.012-9e-3 -0.022-0.02-0.028-0.032l-0.014-0.028c-0.028-0.055-0.027-0.114 4e-3 -0.176 0.024-0.059 0.074-0.107 0.147-0.144 0.062-0.031 0.125-0.036 0.19-0.015 0.056 0.018 0.101 0.061 0.135 0.129 0.028 0.055 0.028 0.109 0 0.162-0.034 0.056-0.088 0.102-0.161 0.14-0.049 0.025-0.099 0.034-0.148 0.028s-0.091-0.027-0.125-0.064z" data-fill-palette-color="accent"/>
<path d="m19.559 5.035c0.114-0.05 0.186-0.116 0.218-0.198 0.034-0.076 0.036-0.148 5e-3 -0.218-0.02-0.044-0.043-0.079-0.069-0.105-0.027-0.026-0.063-0.048-0.108-0.065-0.039-0.02-0.091-0.035-0.156-0.044-0.058-0.012-0.13-0.022-0.216-0.029-0.108-5e-3 -0.203-0.016-0.286-0.032-0.08-0.01-0.152-0.027-0.215-0.052-0.057-0.027-0.107-0.062-0.148-0.104s-0.076-0.095-0.104-0.158c-0.036-0.082-0.054-0.157-0.054-0.225s0.018-0.129 0.054-0.183c0.034-0.06 0.081-0.115 0.143-0.164 0.061-0.05 0.133-0.093 0.214-0.129 0.164-0.073 0.343-0.103 0.537-0.091l0.181 0.407-0.152 0.067-0.221-0.321c-0.114-2e-3 -0.222 0.019-0.323 0.064-0.177 0.078-0.233 0.19-0.169 0.335 0.034 0.076 0.093 0.133 0.178 0.17 0.085 0.038 0.206 0.064 0.362 0.078 0.108 5e-3 0.205 0.011 0.291 0.018 0.083 0.016 0.156 0.037 0.22 0.061 0.064 0.025 0.119 0.057 0.167 0.096 0.041 0.042 0.077 0.098 0.108 0.167 0.034 0.076 0.048 0.152 0.045 0.229-4e-3 0.077-0.024 0.15-0.061 0.22-0.037 0.069-0.09 0.138-0.158 0.206-0.071 0.062-0.154 0.113-0.249 0.155-0.189 0.084-0.387 0.122-0.594 0.116l-0.18-0.407 0.152-0.067 0.204 0.283c0.136 0 0.264-0.026 0.384-0.08z" data-fill-palette-color="accent"/>
<path d="m20.334 2.344 0.174 0.465 0.466-0.174c0.01 0.026 0.018 0.048 0.025 0.068 7e-3 0.019 0.016 0.042 0.026 0.068l-0.44 0.242 0.337 0.902c0.06 0.162 0.119 0.269 0.175 0.321 0.05 0.055 0.107 0.07 0.172 0.046 0.058-0.022 0.137-0.077 0.237-0.166 0.033 0.01 0.064 0.042 0.092 0.098-0.05 0.063-0.089 0.107-0.117 0.132-0.025 0.031-0.06 0.067-0.104 0.106-0.047 0.032-0.099 0.059-0.158 0.081-0.11 0.041-0.216 0.033-0.318-0.025-0.096-0.06-0.177-0.177-0.242-0.351l-0.399-1.067-0.244 0.058c-0.016-0.023-0.027-0.042-0.031-0.054-7e-3 -0.019-0.014-0.046-0.02-0.082 0.062-0.031 0.108-0.066 0.137-0.106 0.033-0.049 0.057-0.103 0.073-0.16 0.013-0.064 0.019-0.117 0.017-0.161 5e-3 -0.046 7e-3 -0.109 7e-3 -0.19 0.017-0.014 0.038-0.025 0.064-0.035s0.05-0.015 0.071-0.016z" data-fill-palette-color="accent"/>
<path d="m23.295 2.741-0.091 0.919 0.291-0.03c0.015 0.032 0.025 0.072 0.03 0.12-0.149 0.03-0.27 0.057-0.364 0.08-0.054 0.013-0.177 0.048-0.369 0.103-0.023-0.037-0.033-0.077-0.03-0.12l0.218-0.108c0.02-0.062 0.039-0.173 0.056-0.334l0.29-2.558 0.121-0.03 1.645 2.406 0.281-0.027c0.022 0.03 0.032 0.07 0.03 0.12-0.142 0.028-0.3 0.064-0.474 0.108-0.134 0.033-0.294 0.077-0.48 0.13-0.023-0.037-0.033-0.077-0.03-0.121l0.269-0.12-0.51-0.758zm0.129-1.408c0 0.114-9e-3 0.265-0.026 0.454l-0.086 0.768 0.764-0.19-0.427-0.641c-0.082-0.129-0.157-0.26-0.225-0.391z" data-fill-palette-color="accent"/>
<path d="m26.244 3.036c0.122-0.021 0.209-0.068 0.26-0.14 0.052-0.065 0.071-0.135 0.057-0.21-8e-3 -0.048-0.022-0.087-0.041-0.118-0.02-0.032-0.049-0.061-0.089-0.09-0.033-0.029-0.08-0.056-0.141-0.08-0.054-0.026-0.121-0.052-0.203-0.081-0.103-0.031-0.193-0.064-0.269-0.099-0.075-0.029-0.141-0.063-0.197-0.103-0.049-0.04-0.089-0.086-0.118-0.137-0.03-0.051-0.051-0.11-0.063-0.178-0.015-0.088-0.015-0.166 1e-3 -0.231 0.017-0.066 0.049-0.121 0.098-0.164 0.047-0.05 0.106-0.092 0.178-0.126 0.071-0.033 0.151-0.058 0.239-0.073 0.177-0.031 0.358-0.017 0.543 0.041l0.077 0.439-0.163 0.028-0.138-0.365c-0.11-0.03-0.22-0.035-0.328-0.016-0.19 0.033-0.272 0.128-0.245 0.285 0.014 0.082 0.058 0.151 0.131 0.208s0.184 0.111 0.333 0.162c0.103 0.031 0.196 0.06 0.278 0.088 0.076 0.036 0.142 0.073 0.199 0.113 0.056 0.039 0.102 0.084 0.139 0.133 0.03 0.051 0.051 0.114 0.064 0.189 0.014 0.082 0.01 0.159-0.012 0.233s-0.06 0.14-0.112 0.198c-0.053 0.058-0.121 0.112-0.203 0.162-0.084 0.043-0.176 0.073-0.279 0.09-0.204 0.036-0.405 0.025-0.604-0.031l-0.077-0.438 0.164-0.029 0.13 0.324c0.132 0.033 0.262 0.038 0.391 0.016z" data-fill-palette-color="accent"/>
<path d="m28.008 2.792c0.123-0.014 0.213-0.055 0.268-0.124 0.056-0.062 0.079-0.13 0.071-0.206-5e-3 -0.048-0.017-0.088-0.035-0.121s-0.045-0.064-0.083-0.095c-0.031-0.031-0.076-0.061-0.135-0.089-0.052-0.029-0.118-0.06-0.198-0.092-0.101-0.037-0.189-0.076-0.263-0.117-0.073-0.034-0.136-0.072-0.19-0.114-0.046-0.043-0.083-0.091-0.109-0.144-0.027-0.053-0.044-0.113-0.052-0.182-0.01-0.089-5e-3 -0.166 0.016-0.231s0.056-0.117 0.107-0.157c0.05-0.047 0.112-0.085 0.185-0.115 0.073-0.029 0.154-0.048 0.244-0.058 0.178-0.02 0.358 5e-3 0.539 0.075l0.05 0.442-0.165 0.019-0.114-0.373c-0.108-0.037-0.217-0.049-0.327-0.036-0.192 0.021-0.279 0.111-0.262 0.268 9e-3 0.082 0.048 0.154 0.118 0.216 0.069 0.062 0.177 0.123 0.322 0.183 0.101 0.037 0.192 0.072 0.272 0.105 0.074 0.04 0.138 0.082 0.191 0.125s0.097 0.09 0.131 0.141c0.027 0.053 0.044 0.117 0.052 0.193 9e-3 0.082 0 0.16-0.026 0.232-0.027 0.072-0.068 0.136-0.124 0.19-0.056 0.055-0.127 0.104-0.213 0.149-0.086 0.037-0.181 0.062-0.283 0.073-0.206 0.023-0.406 0-0.602-0.068l-0.049-0.442 0.165-0.019 0.109 0.332c0.13 0.041 0.26 0.054 0.39 0.04z" data-fill-palette-color="accent"/>
<path d="m29.122 1.841c-6e-3 -0.138 6e-3 -0.27 0.036-0.395 0.036-0.126 0.09-0.235 0.162-0.328 0.079-0.093 0.169-0.166 0.271-0.218 0.108-0.06 0.231-0.092 0.369-0.099 0.131-5e-3 0.253 0.017 0.365 0.068 0.112 0.044 0.208 0.109 0.288 0.195s0.143 0.191 0.189 0.314c0.046 0.122 0.073 0.253 0.078 0.39 6e-3 0.145-9e-3 0.28-0.045 0.406-0.037 0.119-0.091 0.225-0.163 0.318-0.079 0.093-0.173 0.166-0.281 0.218-0.101 0.059-0.217 0.092-0.348 0.098-0.138 6e-3 -0.263-0.013-0.376-0.057-0.112-0.044-0.208-0.109-0.287-0.196-0.08-0.086-0.143-0.191-0.19-0.313-0.04-0.123-0.062-0.256-0.068-0.401zm0.48-0.662c-0.097 0.149-0.14 0.365-0.128 0.647 6e-3 0.145 0.025 0.268 0.056 0.371 0.032 0.109 0.074 0.197 0.125 0.264s0.109 0.12 0.173 0.159c0.063 0.032 0.133 0.046 0.209 0.043 0.069-3e-3 0.137-0.023 0.204-0.06 0.06-0.044 0.113-0.101 0.159-0.173 0.045-0.071 0.08-0.162 0.103-0.273 0.023-0.105 0.032-0.229 0.026-0.374-6e-3 -0.138-0.025-0.261-0.057-0.371-0.032-0.109-0.074-0.197-0.125-0.264s-0.112-0.12-0.183-0.158c-0.063-0.032-0.13-0.046-0.198-0.044-0.145 6e-3 -0.266 0.084-0.364 0.233z" data-fill-palette-color="accent"/>
<path d="m32.942 1.341c-0.05 0.047-0.164 0.067-0.344 0.061-0.025-0.298-0.127-0.449-0.306-0.455-0.138-4e-3 -0.258 0.071-0.36 0.227-0.095 0.156-0.146 0.365-0.154 0.626-8e-3 0.262 0.026 0.467 0.104 0.615 0.078 0.147 0.2 0.224 0.366 0.229 0.179 6e-3 0.358-0.061 0.534-0.2 0.034 0.022 0.057 0.057 0.069 0.105-0.172 0.181-0.385 0.267-0.64 0.259-0.248-8e-3 -0.449-0.101-0.602-0.278-0.146-0.17-0.214-0.421-0.204-0.752 0.01-0.31 0.104-0.552 0.283-0.726 0.178-0.174 0.381-0.257 0.608-0.25 0.172 6e-3 0.326 0.055 0.462 0.15 0.128 0.094 0.19 0.224 0.184 0.389z" data-fill-palette-color="accent"/>
<path d="m34.03 1.549-0.102 1.124 0.284 0.077c-1e-3 0.014-2e-3 0.024-3e-3 0.031s-2e-3 0.017-2e-3 0.031c-1e-3 0.014-2e-3 0.024-3e-3 0.031-1e-3 0.014-2e-3 0.027-4e-3 0.041-0.151-0.021-0.301-0.038-0.453-0.051-0.055-5e-3 -0.121-7e-3 -0.196-7e-3 -0.076-7e-3 -0.162-0.015-0.258-0.024-5e-3 -0.021-7e-3 -0.042-5e-3 -0.062 2e-3 -0.021 7e-3 -0.044 0.017-0.072l0.282-0.016c6e-3 -0.062 0.015-0.13 0.029-0.205 7e-3 -0.076 0.014-0.155 0.021-0.237l0.067-0.742c0.014-0.151 0.02-0.265 0.021-0.341l-0.276-0.057c1e-3 -0.014 3e-3 -0.034 6e-3 -0.061 1e-3 -0.014 2e-3 -0.024 3e-3 -0.031 1e-3 -0.014 2e-3 -0.027 3e-3 -0.042 0.159 7e-3 0.364 2e-3 0.615-0.017 0.019 0.022 0.027 0.047 0.025 0.075-0.019 0.061-0.043 0.246-0.071 0.555zm-0.394-1.283c-6e-3 -0.014-8e-3 -0.028-6e-3 -0.042 1e-3 -0.014 2e-3 -0.024 3e-3 -0.031 6e-3 -0.062 0.038-0.111 0.096-0.147 0.052-0.037 0.119-0.052 0.202-0.044 0.069 6e-3 0.125 0.036 0.168 0.088 0.038 0.045 0.053 0.105 0.046 0.181-6e-3 0.062-0.034 0.108-0.085 0.138-0.058 0.029-0.128 0.04-0.211 0.032-0.055-5e-3 -0.102-0.023-0.14-0.054-0.039-0.031-0.063-0.071-0.073-0.121z" data-fill-palette-color="accent"/>
<path d="m34.981 2.512c-0.018 0.123-0.01 0.211 0.023 0.265 0.034 0.054 0.099 0.088 0.194 0.102 0.068 0.01 0.15 1e-3 0.245-0.026 0.088-0.029 0.176-0.079 0.263-0.149l0.08-0.543c-0.241-0.022-0.431-8e-3 -0.571 0.041-0.134 0.057-0.212 0.16-0.234 0.31zm0.824-0.474 0.025-0.174c0.029-0.198 0.027-0.345-7e-3 -0.441-0.035-0.096-0.103-0.151-0.206-0.166-0.102-0.015-0.193 6e-3 -0.271 0.064-0.072 0.059-0.133 0.169-0.185 0.328-0.07 4e-3 -0.126 2e-3 -0.167-3e-3 -0.089-0.013-0.135-0.052-0.14-0.115 0.023-0.157 0.11-0.273 0.262-0.349 0.15-0.068 0.324-0.088 0.521-0.058 0.225 0.033 0.379 0.102 0.461 0.204 0.081 0.11 0.105 0.281 0.071 0.513l-0.145 0.973c-9e-3 0.061-0.013 0.113-0.012 0.155l0.261 0.07c9e-3 0.036 2e-3 0.081-0.02 0.133-0.165-0.018-0.341-0.026-0.529-0.026-0.011-0.022-0.017-0.048-0.02-0.076l0.014-0.239c-0.224 0.19-0.451 0.268-0.683 0.233-0.15-0.022-0.26-0.081-0.33-0.174-0.062-0.1-0.083-0.218-0.063-0.355 0.031-0.212 0.151-0.358 0.359-0.439 0.207-0.081 0.475-0.1 0.804-0.058z" data-fill-palette-color="accent"/>
<path d="m37.575 1.113-0.103 0.486 0.486 0.103c-6e-3 0.027-0.011 0.051-0.015 0.071s-9e-3 0.044-0.015 0.071l-0.501-0.032-0.2 0.942c-0.036 0.169-0.044 0.29-0.024 0.365 0.013 0.073 0.053 0.117 0.12 0.131 0.061 0.013 0.157 9e-3 0.289-0.013 0.023 0.026 0.031 0.07 0.025 0.132-0.076 0.026-0.132 0.043-0.169 0.049-0.038 0.013-0.086 0.024-0.145 0.033-0.057 2e-3 -0.116-3e-3 -0.176-0.016-0.115-0.024-0.2-0.088-0.256-0.192-0.049-0.102-0.054-0.244-0.015-0.426l0.235-1.114-0.236-0.082c-1e-3 -0.028 0-0.049 2e-3 -0.063 4e-3 -0.02 0.013-0.047 0.028-0.079 0.069 8e-3 0.127 2e-3 0.172-0.016 0.054-0.024 0.103-0.056 0.148-0.096 0.045-0.047 0.079-0.089 0.101-0.127 0.029-0.036 0.065-0.089 0.107-0.157 0.022-2e-3 0.046-1e-3 0.073 5e-3s0.05 0.014 0.069 0.025z" data-fill-palette-color="accent"/>
<path d="m38.878 2.438-0.285 1.092 0.268 0.123c-3e-3 0.013-6e-3 0.023-8e-3 0.03s-4e-3 0.017-8e-3 0.03c-3e-3 0.013-6e-3 0.023-8e-3 0.03-3e-3 0.013-7e-3 0.027-0.01 0.04-0.145-0.045-0.291-0.087-0.438-0.125-0.053-0.014-0.118-0.027-0.193-0.039-0.073-0.019-0.157-0.041-0.251-0.066-1e-3 -0.022 0-0.043 6e-3 -0.062 5e-3 -0.02 0.015-0.043 0.028-0.068l0.281 0.031c0.016-0.06 0.036-0.126 0.062-0.198 0.019-0.073 0.039-0.15 0.06-0.23l0.188-0.722c0.038-0.147 0.064-0.258 0.077-0.333l-0.263-0.1c3e-3 -0.013 9e-3 -0.033 0.016-0.06 3e-3 -0.013 6e-3 -0.023 7e-3 -0.03 3e-3 -0.013 7e-3 -0.027 0.011-0.041 0.155 0.033 0.358 0.061 0.609 0.084 0.015 0.025 0.019 0.051 0.012 0.078-0.029 0.057-0.083 0.235-0.161 0.536zm-0.178-1.33c-3e-3 -0.015-3e-3 -0.029 1e-3 -0.043 3e-3 -0.013 6e-3 -0.023 8e-3 -0.03 0.016-0.06 0.055-0.103 0.119-0.129 0.057-0.028 0.126-0.031 0.206-0.011 0.067 0.017 0.117 0.056 0.152 0.115 0.03 0.051 0.035 0.112 0.016 0.186-0.016 0.06-0.051 0.101-0.107 0.122-0.062 0.019-0.133 0.019-0.213-2e-3 -0.053-0.014-0.097-0.039-0.13-0.077-0.033-0.037-0.05-0.081-0.052-0.131z" data-fill-palette-color="accent"/>
<path d="m39.496 3.002c0.043-0.131 0.099-0.251 0.17-0.358 0.078-0.105 0.166-0.189 0.267-0.251 0.106-0.06 0.216-0.097 0.329-0.111 0.122-0.018 0.249-6e-3 0.38 0.037 0.125 0.04 0.231 0.104 0.319 0.19 0.09 0.08 0.157 0.174 0.202 0.283s0.067 0.229 0.069 0.36c1e-3 0.131-0.02 0.262-0.062 0.393-0.045 0.138-0.106 0.259-0.184 0.365-0.076 0.099-0.163 0.179-0.263 0.241-0.106 0.06-0.22 0.096-0.34 0.108-0.115 0.021-0.236 0.011-0.36-0.03-0.131-0.043-0.242-0.104-0.332-0.184s-0.157-0.174-0.202-0.283-0.067-0.229-0.069-0.36c5e-3 -0.129 0.031-0.262 0.076-0.4zm0.68-0.454c-0.143 0.106-0.258 0.293-0.346 0.563-0.045 0.138-0.07 0.26-0.075 0.367-8e-3 0.114 1e-3 0.211 0.025 0.291 0.025 0.081 0.06 0.15 0.107 0.209 0.048 0.052 0.109 0.09 0.181 0.113 0.066 0.021 0.137 0.026 0.213 0.015 0.072-0.02 0.141-0.056 0.208-0.107s0.131-0.124 0.192-0.221c0.058-0.09 0.11-0.204 0.154-0.342 0.043-0.131 0.068-0.254 0.075-0.367 8e-3 -0.114-1e-3 -0.211-0.025-0.291-0.025-0.081-0.063-0.151-0.116-0.212-0.048-0.052-0.105-0.089-0.171-0.11-0.138-0.045-0.278-0.014-0.422 0.092z" data-fill-palette-color="accent"/>
<path d="m42.842 4.582 0.248-0.592c0.069-0.165 0.095-0.289 0.077-0.372-0.015-0.089-0.074-0.154-0.175-0.197-0.159-0.067-0.372-0.014-0.639 0.159l-0.452 1.079 0.247 0.16c-7e-3 0.034-0.024 0.076-0.052 0.124-0.137-0.065-0.276-0.127-0.416-0.186-0.102-0.043-0.243-0.098-0.424-0.166 3e-3 -0.044 0.021-0.085 0.052-0.124l0.274 0.069c0.054-0.112 0.115-0.247 0.181-0.406l0.368-0.878c0.019-0.045 0.033-0.087 0.043-0.129l-0.246-0.136c7e-3 -0.034 0.024-0.076 0.052-0.124 0.158 0.051 0.355 0.108 0.591 0.169 0.011 0.027 0.011 0.053 1e-3 0.079-0.034 0.046-0.08 0.138-0.139 0.278 0.271-0.163 0.511-0.201 0.72-0.113 0.337 0.141 0.439 0.371 0.306 0.689l-0.48 1.146 0.238 0.156c-7e-3 0.034-0.024 0.076-0.052 0.124-0.131-0.062-0.27-0.124-0.416-0.186-0.095-0.04-0.234-0.094-0.414-0.162 3e-3 -0.044 0.021-0.085 0.052-0.124l0.264 0.065c0.061-0.109 0.124-0.243 0.191-0.402z" data-fill-palette-color="accent"/>
<path d="m44.887 5.204c0.067-0.12 0.147-0.226 0.238-0.317 0.097-0.088 0.2-0.153 0.31-0.194 0.116-0.038 0.231-0.052 0.345-0.044 0.123 6e-3 0.245 0.042 0.366 0.11 0.114 0.064 0.206 0.147 0.275 0.249 0.073 0.096 0.12 0.202 0.143 0.317 0.022 0.115 0.021 0.237-3e-3 0.366-0.025 0.129-0.071 0.253-0.139 0.374-0.071 0.126-0.155 0.234-0.251 0.322-0.093 0.082-0.195 0.144-0.305 0.184-0.116 0.038-0.234 0.051-0.354 0.039-0.117-2e-3 -0.233-0.036-0.348-0.099-0.12-0.067-0.217-0.149-0.29-0.246-0.073-0.096-0.12-0.202-0.142-0.317s-0.021-0.237 3e-3 -0.366c0.031-0.125 0.081-0.251 0.152-0.378zm0.757-0.311c-0.161 0.076-0.311 0.237-0.45 0.484-0.071 0.126-0.12 0.242-0.146 0.345-0.03 0.11-0.041 0.207-0.032 0.29 8e-3 0.084 0.03 0.159 0.064 0.226 0.037 0.06 0.089 0.109 0.155 0.146 0.06 0.034 0.129 0.052 0.206 0.056 0.074-6e-3 0.15-0.027 0.225-0.063 0.076-0.037 0.153-0.096 0.231-0.179 0.075-0.077 0.147-0.178 0.218-0.305 0.067-0.12 0.116-0.235 0.147-0.346 0.03-0.11 0.041-0.207 0.032-0.29-8e-3 -0.084-0.033-0.161-0.073-0.231-0.037-0.06-0.086-0.108-0.146-0.141-0.126-0.071-0.27-0.068-0.431 8e-3z" data-fill-palette-color="accent"/>
<path d="m48.615 5.195c0.288 0.19 0.356 0.4 0.205 0.63-0.071 0.02-0.182-0.025-0.334-0.133 0.115-0.213 0.133-0.346 0.052-0.399-0.075-0.049-0.165-0.026-0.27 0.071-0.108 0.102-0.265 0.309-0.47 0.62l0.407 0.267c-0.011 0.042-0.036 0.08-0.074 0.112l-0.446-0.206-0.74 1.124 0.306 0.288c-0.015 0.048-0.04 0.085-0.074 0.112-0.117-0.085-0.265-0.187-0.444-0.304-0.104-0.068-0.241-0.155-0.412-0.259 0.011-0.042 0.036-0.08 0.074-0.112l0.25 0.09c0.07-0.094 0.151-0.21 0.242-0.349l0.529-0.804-0.176-0.165c9e-3 -0.052 0.034-0.089 0.074-0.113l0.199 0.131 0.131-0.199c0.076-0.115 0.167-0.216 0.274-0.303 0.103-0.081 0.216-0.134 0.34-0.16 0.134-0.028 0.253-7e-3 0.357 0.061z" data-fill-palette-color="accent"/>
<path d="m50.828 9.866 1.3-1.531-2.54 1.36-0.071-0.061 0.909-2.636-1.246 1.467c-0.121 0.142-0.205 0.247-0.254 0.314l0.219 0.254c-0.016 0.04-0.043 0.072-0.081 0.095-0.148-0.135-0.256-0.231-0.324-0.29-0.105-0.089-0.213-0.176-0.322-0.26 0.021-0.046 0.048-0.077 0.08-0.095l0.264 0.17 1.333-1.57c0.116-0.137 0.201-0.241 0.254-0.314l-0.194-0.219c0.016-0.04 0.043-0.072 0.08-0.095l0.584 0.496-0.818 2.321 2.175-1.168c0.032 0.037 0.091 0.091 0.174 0.162 0.021 0.018 0.163 0.134 0.425 0.347-0.016 0.04-0.043 0.072-0.08 0.095l-0.248-0.156c-0.063 0.064-0.153 0.164-0.269 0.301l-1.334 1.569 0.186 0.213c-0.012 0.035-0.039 0.067-0.08 0.095-0.106-0.099-0.225-0.204-0.357-0.317-0.095-0.08-0.22-0.183-0.377-0.307 0.03-0.056 0.057-0.088 0.08-0.094l0.263 0.154c0.059-0.059 0.149-0.159 0.269-0.3z" data-fill-palette-color="accent"/>
<path d="m52.627 10.564-0.806 0.79 0.166 0.243-0.022 0.022c-5e-3 5e-3 -0.012 0.012-0.022 0.021l-0.022 0.022c-0.01 0.01-0.02 0.019-0.03 0.029-0.101-0.113-0.205-0.224-0.311-0.332-0.039-0.039-0.087-0.084-0.145-0.133-0.053-0.054-0.114-0.116-0.182-0.185 0.01-0.019 0.022-0.036 0.037-0.051s0.034-0.029 0.059-0.043l0.226 0.17c0.044-0.043 0.096-0.089 0.155-0.137 0.054-0.053 0.111-0.109 0.17-0.167l0.532-0.522c0.108-0.106 0.187-0.189 0.236-0.247l-0.173-0.221c0.01-0.01 0.025-0.024 0.044-0.043l0.022-0.022c0.01-0.01 0.02-0.019 0.03-0.029 0.116 0.108 0.276 0.237 0.479 0.385 0 0.029-0.01 0.054-0.03 0.073-0.054 0.034-0.192 0.159-0.413 0.377zm0.531-1.232c5e-3 -0.015 0.012-0.027 0.022-0.037s0.017-0.017 0.023-0.021c0.044-0.043 0.101-0.06 0.168-0.05 0.063 5e-3 0.124 0.038 0.183 0.097 0.048 0.049 0.072 0.108 0.071 0.176-1e-3 0.059-0.028 0.114-0.082 0.168-0.044 0.043-0.096 0.06-0.154 0.05-0.063-0.015-0.124-0.052-0.182-0.112-0.039-0.039-0.063-0.084-0.072-0.132-9e-3 -0.049-2e-3 -0.095 0.023-0.139z" data-fill-palette-color="accent"/>
<path d="m53.542 12.641 0.486-0.419c0.136-0.117 0.214-0.217 0.235-0.298 0.026-0.086 3e-3 -0.171-0.069-0.255-0.113-0.131-0.327-0.178-0.643-0.142l-0.886 0.764 0.151 0.253c-0.022 0.028-0.056 0.057-0.102 0.088-0.094-0.119-0.19-0.237-0.29-0.352-0.072-0.084-0.174-0.196-0.305-0.338 0.022-0.037 0.056-0.067 0.102-0.088l0.213 0.185c0.099-0.076 0.213-0.17 0.344-0.283l0.721-0.622c0.037-0.032 0.068-0.063 0.095-0.096l-0.159-0.232c0.022-0.028 0.056-0.057 0.102-0.088 0.119 0.116 0.27 0.255 0.454 0.415-2e-3 0.029-0.014 0.053-0.035 0.071-0.051 0.026-0.134 0.088-0.248 0.187 0.315-0.026 0.547 0.048 0.695 0.22 0.239 0.277 0.228 0.528-0.033 0.754l-0.941 0.811 0.144 0.246c-0.022 0.028-0.056 0.057-0.102 0.088-0.089-0.114-0.186-0.231-0.29-0.352-0.068-0.078-0.167-0.188-0.298-0.33 0.022-0.037 0.056-0.067 0.102-0.088l0.207 0.177c0.103-0.071 0.22-0.162 0.35-0.276z" data-fill-palette-color="accent"/>
<path d="m55.014 14.568 0.519-0.378c0.145-0.106 0.231-0.198 0.259-0.278 0.033-0.084 0.017-0.17-0.048-0.259-0.101-0.14-0.311-0.205-0.629-0.196l-0.946 0.688 0.129 0.265c-0.024 0.026-0.06 0.052-0.109 0.079-0.084-0.127-0.17-0.252-0.259-0.374-0.065-0.089-0.157-0.21-0.277-0.362 0.025-0.036 0.062-0.062 0.109-0.08l0.198 0.202c0.105-0.067 0.227-0.152 0.366-0.253l0.77-0.56c0.039-0.028 0.073-0.058 0.103-0.088l-0.139-0.244c0.024-0.026 0.06-0.052 0.109-0.079 0.109 0.126 0.248 0.276 0.417 0.451-5e-3 0.029-0.018 0.051-0.04 0.068-0.053 0.021-0.141 0.077-0.263 0.165 0.316 0 0.541 0.093 0.675 0.277 0.215 0.296 0.183 0.545-0.096 0.749l-1.005 0.73 0.123 0.257c-0.024 0.026-0.06 0.052-0.109 0.079-0.08-0.121-0.166-0.246-0.259-0.375-0.061-0.084-0.151-0.202-0.271-0.353 0.025-0.036 0.062-0.062 0.109-0.08l0.192 0.194c0.109-0.062 0.233-0.144 0.372-0.245z" data-fill-palette-color="accent"/>
<path d="m56.68 16.451-0.579-0.932c-0.515 0.295-0.675 0.601-0.478 0.918 0.087 0.141 0.236 0.243 0.447 0.308 1e-3 0.04-0.017 0.084-0.053 0.13-0.24-0.046-0.423-0.172-0.551-0.377-0.302-0.487-0.169-0.906 0.4-1.259 0.27-0.167 0.526-0.225 0.77-0.173 0.234 0.05 0.409 0.168 0.525 0.356 0.131 0.211 0.15 0.406 0.059 0.585-0.083 0.181-0.241 0.344-0.476 0.49-0.026-0.016-0.048-0.031-0.064-0.046zm0.367-0.958c-0.065-0.106-0.176-0.159-0.331-0.161-0.153-0.011-0.315 0.029-0.486 0.12l0.229 0.369c0.091 0.147 0.163 0.244 0.217 0.291 0.158-0.098 0.276-0.204 0.352-0.316 0.067-0.115 0.073-0.216 0.019-0.303z" data-fill-palette-color="accent"/>
<path d="m56.471 17.952c0.058 0.11 0.13 0.177 0.214 0.203 0.078 0.029 0.15 0.025 0.217-0.011 0.043-0.023 0.076-0.048 0.1-0.076s0.043-0.066 0.057-0.113c0.017-0.041 0.028-0.093 0.033-0.158 8e-3 -0.059 0.012-0.132 0.013-0.218-3e-3 -0.108 1e-3 -0.204 0.011-0.288 4e-3 -0.08 0.016-0.153 0.036-0.218 0.023-0.059 0.054-0.111 0.094-0.155 0.039-0.044 0.089-0.083 0.149-0.115 0.079-0.042 0.153-0.066 0.221-0.071s0.13 9e-3 0.186 0.042c0.063 0.029 0.121 0.072 0.175 0.129s0.102 0.125 0.144 0.205c0.084 0.158 0.128 0.335 0.13 0.529l-0.393 0.209-0.078-0.146 0.304-0.244c-6e-3 -0.114-0.035-0.22-0.087-0.317-0.091-0.171-0.206-0.218-0.347-0.144-0.073 0.039-0.125 0.102-0.157 0.189s-0.049 0.21-0.05 0.368c3e-3 0.108 4e-3 0.205 2e-3 0.291-0.01 0.084-0.025 0.158-0.045 0.224-0.02 0.065-0.048 0.123-0.083 0.173-0.039 0.044-0.092 0.084-0.159 0.12-0.073 0.039-0.148 0.059-0.225 0.061s-0.152-0.013-0.224-0.045-0.144-0.08-0.217-0.142c-0.067-0.066-0.124-0.145-0.172-0.237-0.097-0.183-0.15-0.377-0.159-0.584l0.393-0.209 0.078 0.146-0.268 0.225c0.01 0.136 0.045 0.261 0.107 0.377z" data-fill-palette-color="accent"/>
<path d="m57.766 18.635c0.126-0.056 0.253-0.094 0.381-0.113 0.13-0.013 0.252-3e-3 0.364 0.03 0.116 0.039 0.217 0.096 0.303 0.171 0.095 0.078 0.171 0.18 0.228 0.306 0.053 0.12 0.077 0.241 0.072 0.365 1e-3 0.121-0.024 0.234-0.075 0.339-0.051 0.106-0.125 0.203-0.221 0.292-0.097 0.088-0.208 0.161-0.334 0.217-0.132 0.059-0.264 0.095-0.394 0.108-0.124 0.01-0.242-1e-3 -0.355-0.034-0.116-0.039-0.218-0.099-0.308-0.18-0.093-0.072-0.166-0.168-0.219-0.288-0.056-0.126-0.085-0.249-0.086-0.37s0.024-0.234 0.076-0.339c0.051-0.106 0.125-0.203 0.221-0.292 0.099-0.082 0.215-0.153 0.347-0.212zm0.793 0.202c-0.175-0.035-0.391 5e-3 -0.649 0.12-0.132 0.059-0.24 0.122-0.324 0.189-0.09 0.07-0.156 0.141-0.199 0.214-0.043 0.072-0.071 0.145-0.084 0.219-6e-3 0.071 6e-3 0.141 0.038 0.21 0.028 0.063 0.072 0.119 0.131 0.168 0.063 0.04 0.136 0.068 0.219 0.084s0.18 0.014 0.292-6e-3c0.106-0.017 0.225-0.055 0.357-0.114 0.126-0.056 0.234-0.12 0.324-0.19s0.156-0.141 0.199-0.214c0.043-0.072 0.07-0.148 0.079-0.228 6e-3 -0.071-5e-3 -0.138-0.032-0.201-0.059-0.132-0.176-0.216-0.351-0.251z" data-fill-palette-color="accent"/>
<path d="m60.121 20.75-0.466 0.172 0.172 0.466c-0.026 0.01-0.049 0.018-0.068 0.025s-0.042 0.016-0.068 0.025l-0.24-0.441-0.903 0.333c-0.162 0.06-0.269 0.118-0.322 0.174-0.055 0.05-0.071 0.107-0.047 0.172 0.021 0.058 0.076 0.137 0.164 0.237-0.01 0.033-0.043 0.064-0.098 0.091-0.063-0.05-0.107-0.089-0.132-0.117-0.031-0.025-0.066-0.06-0.104-0.104-0.032-0.047-0.059-0.1-0.081-0.158-0.041-0.11-0.032-0.216 0.026-0.319 0.06-0.096 0.178-0.176 0.353-0.24l1.068-0.394-0.057-0.244c0.024-0.016 0.042-0.026 0.055-0.031 0.019-7e-3 0.047-0.013 0.081-0.019 0.03 0.062 0.066 0.108 0.106 0.137 0.049 0.033 0.102 0.058 0.16 0.074 0.064 0.013 0.117 0.019 0.161 0.018 0.046 5e-3 0.109 7e-3 0.19 7e-3 0.014 0.017 0.025 0.039 0.035 0.064 0.01 0.026 0.015 0.05 0.015 0.072z" data-fill-palette-color="accent"/>
<path d="m58.812 22.571c-0.119 0.036-0.195 0.081-0.23 0.134-0.034 0.054-0.037 0.127-9e-3 0.219 0.02 0.066 0.063 0.136 0.128 0.21 0.064 0.067 0.146 0.125 0.247 0.174l0.526-0.159c-0.083-0.227-0.177-0.394-0.281-0.499-0.109-0.097-0.236-0.123-0.381-0.079zm0.78 0.542 0.169-0.051c0.192-0.058 0.323-0.123 0.395-0.195s0.093-0.158 0.063-0.257-0.088-0.172-0.174-0.217c-0.084-0.039-0.209-0.048-0.376-0.027-0.033-0.062-0.056-0.113-0.068-0.153-0.026-0.086-0.011-0.144 0.045-0.175 0.152-0.046 0.294-0.017 0.426 0.087 0.126 0.106 0.218 0.255 0.276 0.446 0.066 0.218 0.07 0.386 0.012 0.505-0.065 0.12-0.209 0.215-0.434 0.283l-0.941 0.284c-0.059 0.018-0.108 0.036-0.146 0.055l0.048 0.267c-0.029 0.023-0.072 0.036-0.128 0.039-0.055-0.157-0.122-0.32-0.203-0.491 0.016-0.019 0.036-0.036 0.061-0.05l0.222-0.089c-0.267-0.121-0.435-0.294-0.503-0.519-0.044-0.145-0.038-0.27 0.017-0.372 0.064-0.099 0.162-0.168 0.294-0.208 0.205-0.062 0.388-0.016 0.549 0.136 0.162 0.153 0.294 0.387 0.396 0.702z" data-fill-palette-color="accent"/>
<path d="m4.317 40.524-0.87-0.359-0.779 1.088c-0.103 0.133-0.187 0.26-0.25 0.381l0.05 0.266c-0.029 0.023-0.067 0.039-0.116 0.047-0.098-0.338-0.159-0.547-0.183-0.626-0.051-0.165-0.095-0.296-0.133-0.392 0.029-0.023 0.068-0.036 0.119-0.037l0.122 0.254c0.04-0.034 0.134-0.15 0.282-0.347l0.599-0.793-0.058-0.188-1.137 0.353 0.044 0.279c-0.031 0.017-0.07 0.029-0.119 0.037-0.036-0.14-0.08-0.293-0.131-0.458-0.037-0.119-0.088-0.272-0.155-0.462 0.035-0.025 0.075-0.038 0.119-0.036l0.126 0.264c0.09-0.013 0.224-0.048 0.401-0.103l1.957-0.608-0.056-0.286c0.031-0.017 0.074-0.03 0.129-0.04 0.026 0.129 0.067 0.286 0.124 0.471 0.049 0.158 0.099 0.309 0.151 0.452-0.035 0.025-0.075 0.038-0.118 0.037l-0.126-0.265c-0.088 0.02-0.217 0.057-0.388 0.11l-0.653 0.202 0.055 0.178 1.309 0.515-0.056-0.286c0.031-0.017 0.074-0.03 0.128-0.04 0.026 0.129 0.059 0.26 0.1 0.392 0.037 0.119 0.08 0.246 0.13 0.382-0.035 0.025-0.075 0.038-0.119 0.037l-0.107-0.205c-0.112-0.081-0.242-0.152-0.391-0.214z" data-fill-palette-color="accent"/>
<path d="m3.048 42.432c-0.115 0.046-0.186 0.101-0.213 0.164-0.029 0.056-0.026 0.129 0.01 0.219 0.026 0.064 0.073 0.127 0.142 0.188 0.072 0.068 0.159 0.118 0.262 0.151l0.499-0.201c-0.103-0.219-0.21-0.373-0.32-0.462-0.113-0.096-0.24-0.115-0.38-0.059zm0.825 0.471 0.163-0.066c0.179-0.072 0.301-0.147 0.367-0.226 0.068-0.072 0.082-0.156 0.044-0.251-0.041-0.102-0.105-0.17-0.193-0.202-0.09-0.038-0.215-0.036-0.377 7e-3 -0.041-0.065-0.068-0.114-0.081-0.146-0.034-0.083-0.021-0.144 0.038-0.183 0.141-0.057 0.282-0.039 0.423 0.053 0.135 0.095 0.24 0.235 0.315 0.42 0.085 0.211 0.103 0.375 0.053 0.492-0.047 0.123-0.183 0.23-0.407 0.32l-0.903 0.364c-0.058 0.023-0.104 0.046-0.14 0.067l0.076 0.271c-0.029 0.019-0.071 0.036-0.125 0.05-0.068-0.151-0.15-0.308-0.245-0.47 0.011-0.027 0.029-0.049 0.051-0.066l0.217-0.098c-0.277-0.097-0.459-0.254-0.547-0.472-0.057-0.141-0.062-0.265-0.016-0.372 0.046-0.108 0.136-0.189 0.271-0.243 0.198-0.08 0.386-0.048 0.563 0.096 0.175 0.138 0.326 0.356 0.453 0.655z" data-fill-palette-color="accent"/>
<path d="m5.263 44.031-0.331 0.147c0.117 5e-3 0.239 0.035 0.364 0.089 0.126 0.054 0.209 0.125 0.252 0.212 0.03 0.062 0.051 0.121 0.062 0.177-0.016 0.031-0.046 0.056-0.089 0.078-0.075 0.036-0.154 0.055-0.237 0.056-0.011-0.087-0.033-0.164-0.066-0.232-0.084-0.174-0.235-0.274-0.454-0.299l-0.555 0.256-0.475 0.228 0.119 0.368c-0.025 0.027-0.066 0.047-0.121 0.058-0.057-0.134-0.125-0.284-0.206-0.452-0.063-0.131-0.139-0.281-0.229-0.453 0.031-0.03 0.072-0.05 0.121-0.058l0.158 0.234c0.115-0.048 0.25-0.109 0.406-0.184l0.858-0.412c0.037-0.018 0.073-0.039 0.107-0.064l-0.093-0.265c0.034-0.024 0.075-0.044 0.122-0.058 0.084 0.143 0.193 0.313 0.325 0.509-0.01 0.028-0.022 0.049-0.038 0.065z" data-fill-palette-color="accent"/>
<path d="m5.689 46.698-0.535-0.958c-0.528 0.271-0.7 0.572-0.515 0.904 0.077 0.139 0.22 0.245 0.427 0.319-1e-3 0.04-0.021 0.083-0.059 0.128-0.234-0.051-0.412-0.185-0.533-0.403-0.276-0.494-0.121-0.904 0.463-1.23 0.277-0.155 0.531-0.202 0.763-0.141 0.235 0.067 0.406 0.196 0.514 0.389 0.118 0.211 0.131 0.405 0.04 0.582-0.1 0.174-0.268 0.327-0.503 0.458-0.028-8e-3 -0.049-0.024-0.062-0.048zm0.402-0.936c-0.057-0.102-0.162-0.163-0.314-0.18-0.149-0.012-0.316 0.022-0.501 0.102l0.212 0.379c0.084 0.151 0.154 0.254 0.209 0.31 0.169-0.094 0.289-0.197 0.361-0.308 0.076-0.105 0.086-0.206 0.033-0.303z" data-fill-palette-color="accent"/>
<path d="m6.477 48.584 0.526-0.35c0.149-0.1 0.239-0.189 0.27-0.267 0.036-0.082 0.024-0.169-0.038-0.262-0.096-0.144-0.3-0.214-0.614-0.212l-0.965 0.643 0.112 0.261c-0.021 0.031-0.058 0.056-0.112 0.075-0.075-0.124-0.154-0.25-0.238-0.376-0.061-0.092-0.148-0.216-0.261-0.373 0.027-0.034 0.064-0.059 0.112-0.075l0.189 0.21c0.107-0.063 0.233-0.143 0.376-0.239l0.793-0.528c0.034-0.023 0.067-0.049 0.097-0.077l-0.129-0.25c0.031-0.029 0.068-0.054 0.112-0.075 0.103 0.13 0.234 0.283 0.393 0.46-6e-3 0.029-0.015 0.052-0.028 0.068-0.059 0.023-0.149 0.075-0.27 0.155 0.31 0.017 0.528 0.121 0.654 0.311 0.199 0.299 0.158 0.542-0.123 0.729l-1.034 0.689 0.112 0.261c-0.021 0.031-0.058 0.056-0.112 0.075-0.075-0.124-0.154-0.25-0.238-0.376-0.061-0.092-0.148-0.216-0.261-0.374 0.027-0.034 0.064-0.059 0.112-0.074l0.189 0.209c0.107-0.063 0.233-0.143 0.376-0.238z" data-fill-palette-color="accent"/>
<path d="m9.442 48.94c0.081 0.094 0.196 0.223 0.344 0.386 0.149 0.163 0.248 0.274 0.298 0.331l0.06 0.071c0.198 0.231 0.296 0.441 0.297 0.632 4e-3 0.196-0.069 0.359-0.221 0.489-0.22 0.189-0.495 0.175-0.827-0.041l-8e-3 7e-3c0.123 0.186 0.172 0.37 0.149 0.554-0.019 0.189-0.103 0.347-0.25 0.473-0.199 0.171-0.412 0.235-0.638 0.193-0.217-0.041-0.436-0.19-0.656-0.447-0.063-0.073-0.156-0.193-0.281-0.359-0.124-0.166-0.227-0.296-0.307-0.391-9e-3 -0.01-0.022-0.026-0.041-0.047-0.022-0.026-0.038-0.045-0.047-0.055 0.022-0.037 0.054-0.064 0.094-0.081l0.213 0.2c0.077-0.048 0.186-0.132 0.327-0.254l1.556-1.334-0.165-0.24c0.022-0.028 0.056-0.057 0.103-0.087zm-0.425 1.604-0.182-0.212-0.959 0.822c0.061 0.103 0.111 0.182 0.151 0.239 0.184 0.215 0.349 0.328 0.495 0.339 0.156 0.012 0.317-0.054 0.485-0.198 0.141-0.121 0.217-0.272 0.226-0.452s-0.063-0.36-0.216-0.538zm0.957-0.793c-0.076-0.089-0.144-0.158-0.205-0.206-0.073 0.053-0.185 0.145-0.336 0.275l-0.472 0.404 0.175 0.204c0.139 0.162 0.277 0.254 0.412 0.274 0.131 0.015 0.262-0.034 0.393-0.146 0.136-0.117 0.202-0.246 0.199-0.388 6e-3 -0.141-0.049-0.28-0.166-0.417z" data-fill-palette-color="accent"/>
<path d="m11.622 52.62-0.954 0.978c-0.111 0.114-0.185 0.195-0.224 0.244l0.171 0.21c-0.024 0.034-0.055 0.067-0.094 0.097-0.123-0.111-0.261-0.221-0.414-0.332 5e-3 -0.024 0.014-0.049 0.028-0.073l0.202-0.237c-0.161 0.026-0.302 0.028-0.424 5e-3s-0.233-0.083-0.332-0.179c-0.104-0.101-0.164-0.213-0.18-0.334-0.021-0.117 0.029-0.237 0.149-0.361l0.543-0.555c0.183-0.188 0.299-0.311 0.346-0.371l-0.171-0.21c0.019-0.039 0.05-0.071 0.094-0.096 0.123 0.101 0.283 0.223 0.481 0.367 0 0.029-7e-3 0.051-0.021 0.066-0.053 0.035-0.357 0.336-0.912 0.905-0.111 0.114-0.176 0.21-0.194 0.288-0.023 0.073 2e-3 0.146 0.076 0.218 0.143 0.14 0.351 0.184 0.624 0.132l0.492-0.504c0.183-0.188 0.299-0.311 0.346-0.371l-0.178-0.217c0.024-0.034 0.055-0.067 0.094-0.096 0.108 0.086 0.264 0.204 0.465 0.353 0 0.029-4e-3 0.054-0.013 0.073z" data-fill-palette-color="accent"/>
<path d="m13.614 53.872-1.092 1.313c-0.102 0.122-0.169 0.209-0.204 0.261l0.187 0.196c-0.021 0.036-0.05 0.071-0.086 0.103-0.132-0.101-0.278-0.2-0.439-0.298 3e-3 -0.025 0.01-0.05 0.023-0.075l0.123-0.181c-0.12 0.026-0.246 0.02-0.377-0.017-0.125-0.033-0.241-0.093-0.347-0.181-0.154-0.128-0.228-0.298-0.223-0.509 0.01-0.216 0.103-0.431 0.279-0.643 0.207-0.249 0.441-0.396 0.702-0.439 0.256-0.038 0.477 0.02 0.663 0.175 0.143 0.119 0.234 0.253 0.272 0.401l0.298-0.358c0.097-0.117 0.167-0.206 0.21-0.269l-0.188-0.211c0.017-0.031 0.043-0.063 0.08-0.095 0.136 0.095 0.305 0.205 0.507 0.328 3e-3 0.029 0 0.054-8e-3 0.074-0.05 0.039-0.177 0.18-0.38 0.425zm-0.934-0.172c-0.117-0.097-0.26-0.113-0.431-0.049-0.17 0.065-0.346 0.206-0.527 0.423-0.146 0.175-0.224 0.334-0.236 0.478-0.011 0.153 0.037 0.273 0.144 0.361 0.064 0.053 0.15 0.089 0.26 0.109 0.11 0.029 0.223 0.029 0.338-2e-3l0.708-0.851c-6e-3 -0.176-0.092-0.332-0.256-0.469z" data-fill-palette-color="accent"/>
<path d="m15.487 55.218-0.982 1.397c-0.091 0.13-0.152 0.222-0.182 0.277l0.203 0.18c-0.018 0.038-0.044 0.075-0.078 0.11-0.139-0.09-0.293-0.177-0.461-0.261 1e-3 -0.025 6e-3 -0.051 0.016-0.077l0.108-0.19c-0.118 0.035-0.243 0.04-0.377 0.014-0.128-0.022-0.248-0.073-0.361-0.152-0.164-0.115-0.252-0.278-0.263-0.489-8e-3 -0.217 0.067-0.438 0.226-0.664 0.186-0.265 0.408-0.43 0.664-0.495 0.252-0.059 0.477-0.019 0.674 0.12 0.152 0.107 0.254 0.233 0.304 0.378l0.268-0.381c0.087-0.124 0.15-0.219 0.188-0.286l-0.205-0.194c0.014-0.032 0.038-0.066 0.071-0.102 0.143 0.084 0.321 0.179 0.533 0.286 5e-3 0.029 4e-3 0.054-2e-3 0.075-0.047 0.043-0.162 0.194-0.344 0.454zm-0.945-0.095c-0.124-0.087-0.269-0.092-0.433-0.014-0.165 0.078-0.328 0.233-0.491 0.465-0.131 0.186-0.196 0.351-0.196 0.495 2e-3 0.153 0.059 0.269 0.172 0.349 0.068 0.048 0.157 0.077 0.268 0.087 0.112 0.02 0.225 0.01 0.337-0.03l0.636-0.906c-0.021-0.175-0.118-0.324-0.293-0.446z" data-fill-palette-color="accent"/>
<path d="m15.381 57.032 0.831-1.421c0.077-0.131 0.131-0.231 0.163-0.3l-0.211-0.172c6e-3 -0.037 0.026-0.072 0.063-0.107 0.138 0.065 0.32 0.143 0.546 0.236 7e-3 0.028 9e-3 0.053 4e-3 0.074-0.043 0.047-0.145 0.207-0.305 0.481l-0.33 0.563c0.267-0.115 0.505-0.112 0.714 0.01 0.125 0.073 0.212 0.164 0.26 0.272 0.051 0.118 0.033 0.251-0.054 0.4l-0.632 1.081 0.215 0.186c-6e-3 0.037-0.028 0.075-0.068 0.116-0.122-0.079-0.248-0.157-0.379-0.234-0.089-0.052-0.219-0.124-0.39-0.215 9e-3 -0.043 0.032-0.081 0.068-0.117l0.254 0.101c0.075-0.1 0.156-0.225 0.242-0.374l0.324-0.554c0.084-0.143 0.125-0.255 0.125-0.335-1e-3 -0.08-0.049-0.149-0.145-0.204-0.071-0.042-0.165-0.06-0.279-0.056-0.115 5e-3 -0.236 0.042-0.365 0.111l-0.585 1 0.215 0.186c-0.011 0.033-0.034 0.072-0.068 0.116-0.122-0.079-0.248-0.157-0.379-0.234-0.089-0.052-0.222-0.126-0.398-0.221 9e-3 -0.043 0.032-0.081 0.068-0.116l0.262 0.105c0.069-0.104 0.147-0.23 0.234-0.378z" data-fill-palette-color="accent"/>
<path d="m18.124 57.779-0.504 0.998 0.226 0.172c0 0.015-2e-3 0.026-5e-3 0.032s-8e-3 0.015-0.014 0.028l-0.014 0.028c-6e-3 0.012-0.016 0.023-0.028 0.032-0.126-0.072-0.257-0.142-0.392-0.21-0.049-0.025-0.109-0.051-0.181-0.079-0.068-0.034-0.145-0.073-0.231-0.117 3e-3 -0.022 9e-3 -0.042 0.019-0.06 9e-3 -0.018 0.023-0.038 0.042-0.06l0.268 0.089c0.028-0.055 0.062-0.115 0.103-0.18 0.031-0.062 0.067-0.132 0.107-0.213l0.332-0.656c0.068-0.135 0.117-0.239 0.145-0.309l-0.236-0.154c6e-3 -0.012 0.016-0.031 0.028-0.055 6e-3 -0.012 0.012-0.025 0.019-0.037 3e-3 -6e-3 8e-3 -0.015 0.014-0.028 0.148 0.059 0.337 0.128 0.568 0.206 9e-3 0.028 0.012 0.053 9e-3 0.074-0.043 0.055-0.135 0.222-0.275 0.499zm0.108-1.337c0-0.015 3e-3 -0.029 9e-3 -0.042l0.014-0.028c0.028-0.055 0.076-0.089 0.144-0.101 0.059-9e-3 0.122 4e-3 0.19 0.038s0.111 0.079 0.129 0.135c0.024 0.059 0.02 0.122-0.015 0.189-0.028 0.055-0.074 0.086-0.139 0.092-0.059 9e-3 -0.125-5e-3 -0.199-0.042-0.049-0.025-0.086-0.059-0.111-0.102s-0.032-0.09-0.022-0.139z" data-fill-palette-color="accent"/>
<path d="m18.857 59.451c0.114 0.05 0.21 0.063 0.289 0.037 0.076-0.034 0.129-0.086 0.159-0.155 0.017-0.038 0.027-0.079 0.032-0.122 1e-3 -0.037-4e-3 -0.077-0.015-0.12-0.018-0.046-0.041-0.094-0.072-0.145-0.036-0.054-0.081-0.115-0.133-0.184-0.062-0.081-0.117-0.154-0.164-0.219-0.044-0.072-0.078-0.14-0.102-0.204-0.018-0.061-0.026-0.121-0.022-0.18-3e-3 -0.062 0.01-0.124 0.038-0.187 0.034-0.076 0.079-0.135 0.135-0.178 0.05-0.046 0.109-0.076 0.176-0.091s0.138-0.014 0.214 4e-3c0.078 0.012 0.158 0.036 0.239 0.072 0.164 0.073 0.308 0.182 0.433 0.327l-0.185 0.417-0.151-0.067 0.089-0.38c-0.075-0.086-0.166-0.153-0.274-0.2-0.17-0.075-0.288-0.041-0.352 0.104-0.034 0.076-0.036 0.158-7e-3 0.246s0.092 0.192 0.191 0.311c0.069 0.083 0.126 0.158 0.172 0.224 0.05 0.075 0.087 0.144 0.112 0.208s0.035 0.125 0.032 0.184c3e-3 0.062-0.011 0.127-0.042 0.196-0.034 0.076-0.08 0.138-0.14 0.187-0.066 0.046-0.137 0.079-0.213 0.098s-0.159 0.028-0.249 0.026c-0.093-0.011-0.19-0.039-0.291-0.084-0.189-0.084-0.348-0.203-0.475-0.358l0.18-0.407 0.151 0.067-0.072 0.342c0.085 0.098 0.19 0.175 0.317 0.231z" data-fill-palette-color="accent"/>
<path d="m21.268 58.061-0.174 0.465 0.456 0.171c-3e-3 0.028-7e-3 0.049-0.012 0.062-7e-3 0.019-0.019 0.041-0.035 0.064l-0.481-0.103-0.338 0.902c-0.06 0.162-0.09 0.28-0.088 0.354 8e-3 0.077 0.045 0.127 0.109 0.151 0.052 0.019 0.147 0.029 0.287 0.03 0.012 0.027 0.014 0.071 5e-3 0.135-0.079 0.015-0.141 0.021-0.184 0.019-0.04 7e-3 -0.089 0.011-0.148 0.011-0.057-6e-3 -0.111-0.019-0.162-0.039-0.11-0.041-0.185-0.117-0.224-0.227-0.033-0.108-0.017-0.25 0.048-0.424l0.399-1.067-0.222-0.116c1e-3 -0.022 4e-3 -0.039 8e-3 -0.052 7e-3 -0.019 0.02-0.044 0.039-0.074 0.063 9e-3 0.122 9e-3 0.177 0s0.107-0.03 0.156-0.063c0.052-0.04 0.091-0.076 0.119-0.11 0.034-0.032 0.074-0.079 0.12-0.143 0.022 1e-3 0.049 7e-3 0.081 0.019 0.026 0.01 0.047 0.021 0.064 0.035z" data-fill-palette-color="accent"/>
<path d="m23.336 60.017-0.512 0.768 0.261 0.108c5e-3 0.037-5e-3 0.077-0.03 0.12-0.139-0.042-0.255-0.074-0.349-0.097-0.054-0.013-0.178-0.041-0.374-0.083-3e-3 -0.044 7e-3 -0.084 0.03-0.121l0.231 0.015c0.055-0.05 0.127-0.139 0.216-0.266l1.455-2.112 0.11 0.028 0.328 2.877 0.261 0.107c5e-3 0.037-5e-3 0.077-0.03 0.121-0.139-0.042-0.295-0.084-0.47-0.128-0.134-0.033-0.295-0.07-0.484-0.11-3e-3 -0.044 7e-3 -0.084 0.03-0.121l0.291 0.03-0.091-0.918zm0.772-1.173-0.01-3e-3c-0.053 0.1-0.132 0.23-0.236 0.39l-0.426 0.64 0.753 0.188-0.065-0.763c-0.012-0.152-0.017-0.303-0.016-0.452z" data-fill-palette-color="accent"/>
<path d="m25.946 61.574c0.122 0.021 0.219 0.01 0.29-0.033 0.065-0.052 0.104-0.115 0.117-0.19 7e-3 -0.041 7e-3 -0.083 1e-3 -0.126-8e-3 -0.036-0.022-0.074-0.043-0.113-0.028-0.04-0.063-0.081-0.105-0.123-0.048-0.043-0.106-0.092-0.174-0.146-0.08-0.063-0.15-0.121-0.211-0.174-0.06-0.059-0.109-0.117-0.149-0.173-0.032-0.055-0.054-0.111-0.065-0.169-0.018-0.059-0.021-0.123-8e-3 -0.19 0.014-0.082 0.044-0.15 0.088-0.205 0.038-0.056 0.088-0.1 0.149-0.132 0.062-0.031 0.131-0.047 0.208-0.048 0.078-7e-3 0.162-3e-3 0.25 0.012 0.177 0.031 0.343 0.102 0.499 0.214l-0.079 0.448-0.163-0.028-5e-3 -0.39c-0.094-0.065-0.198-0.108-0.314-0.128-0.184-0.032-0.289 0.03-0.316 0.186-0.014 0.082 3e-3 0.162 0.052 0.24 0.049 0.079 0.136 0.164 0.26 0.256 0.087 0.064 0.161 0.123 0.222 0.175 0.066 0.061 0.119 0.119 0.159 0.175 0.039 0.056 0.064 0.113 0.075 0.171 0.018 0.059 0.02 0.126 7e-3 0.201-0.014 0.082-0.044 0.153-0.091 0.215-0.053 0.061-0.114 0.11-0.183 0.147-0.07 0.037-0.148 0.065-0.235 0.085-0.093 0.012-0.194 8e-3 -0.303-0.011-0.204-0.036-0.387-0.113-0.548-0.233l0.077-0.438 0.163 0.029 0.012 0.348c0.106 0.075 0.227 0.124 0.363 0.148z" data-fill-palette-color="accent"/>
<path d="m27.817 61.834c0.123 0.014 0.219-3e-3 0.287-0.052 0.062-0.056 0.097-0.121 0.105-0.196 5e-3 -0.041 2e-3 -0.083-7e-3 -0.126-0.01-0.036-0.027-0.072-0.05-0.11-0.03-0.038-0.068-0.077-0.112-0.116-0.051-0.04-0.112-0.085-0.183-0.135-0.084-0.058-0.158-0.111-0.221-0.16-0.063-0.056-0.116-0.11-0.159-0.164-0.036-0.053-0.061-0.107-0.076-0.165-0.021-0.058-0.028-0.121-0.02-0.189 9e-3 -0.082 0.034-0.152 0.075-0.211 0.034-0.059 0.081-0.106 0.141-0.14 0.059-0.035 0.128-0.055 0.205-0.061 0.078-0.012 0.161-0.013 0.25-3e-3 0.178 0.02 0.349 0.081 0.511 0.182l-0.051 0.453-0.164-0.019-0.03-0.388c-0.098-0.059-0.205-0.096-0.321-0.109-0.185-0.021-0.287 0.048-0.304 0.206-9e-3 0.082 0.013 0.161 0.067 0.236s0.146 0.155 0.276 0.239c0.091 0.059 0.168 0.112 0.232 0.161 0.07 0.056 0.126 0.111 0.169 0.165 0.043 0.053 0.071 0.109 0.085 0.166 0.021 0.058 0.028 0.125 0.02 0.2-9e-3 0.082-0.035 0.156-0.077 0.22-0.049 0.064-0.107 0.117-0.174 0.158s-0.144 0.074-0.229 0.1c-0.092 0.017-0.193 0.02-0.303 7e-3 -0.206-0.023-0.393-0.089-0.562-0.197l0.05-0.443 0.164 0.019 0.035 0.347c0.11 0.068 0.234 0.109 0.371 0.125z" data-fill-palette-color="accent"/>
<path d="m29.111 61.107c6e-3 -0.145 0.032-0.275 0.078-0.39 0.046-0.122 0.109-0.227 0.189-0.313 0.08-0.087 0.176-0.155 0.288-0.206 0.112-0.044 0.234-0.063 0.365-0.057 0.131 5e-3 0.251 0.034 0.359 0.087 0.108 0.06 0.198 0.136 0.27 0.228 0.079 0.093 0.137 0.202 0.173 0.329 0.037 0.119 0.052 0.251 0.046 0.395-6e-3 0.138-0.035 0.268-0.089 0.39-0.046 0.116-0.109 0.217-0.188 0.303-0.08 0.087-0.175 0.152-0.288 0.196-0.113 0.051-0.234 0.073-0.365 0.068-0.138-6e-3 -0.258-0.035-0.359-0.088-0.108-0.053-0.199-0.126-0.271-0.218-0.072-0.093-0.126-0.202-0.163-0.328-0.037-0.119-0.052-0.251-0.045-0.396zm0.543-0.619c-0.109 0.134-0.17 0.345-0.181 0.634-6e-3 0.138 3e-3 0.263 0.026 0.374 0.023 0.105 0.058 0.192 0.103 0.264 0.038 0.078 0.088 0.135 0.148 0.172 0.061 0.037 0.129 0.057 0.205 0.06s0.145-0.011 0.209-0.043c0.063-0.032 0.121-0.085 0.172-0.159 0.051-0.067 0.093-0.152 0.124-0.254 0.032-0.109 0.051-0.233 0.057-0.371 6e-3 -0.145-3e-3 -0.273-0.025-0.384-0.023-0.105-0.058-0.192-0.104-0.263-0.045-0.078-0.098-0.135-0.158-0.172-0.061-0.037-0.129-0.057-0.205-0.061-0.145-6e-3 -0.268 0.061-0.371 0.203z" data-fill-palette-color="accent"/>
<path d="m32.911 60.625c-0.047 0.057-0.163 0.088-0.35 0.095-0.044-0.295-0.152-0.44-0.324-0.435-0.138 4e-3 -0.253 0.088-0.344 0.249-0.091 0.162-0.133 0.37-0.125 0.625 9e-3 0.269 0.06 0.471 0.154 0.606 0.087 0.142 0.214 0.211 0.379 0.206 0.172-6e-3 0.343-0.084 0.511-0.234 0.035 0.02 0.064 0.053 0.086 0.101-0.166 0.192-0.377 0.292-0.633 0.3-0.241 8e-3 -0.444-0.072-0.608-0.24-0.157-0.161-0.241-0.403-0.251-0.727-0.01-0.317 0.068-0.568 0.234-0.753 0.167-0.178 0.361-0.271 0.582-0.278 0.179-6e-3 0.336 0.031 0.469 0.109 0.141 0.085 0.214 0.211 0.22 0.376z" data-fill-palette-color="accent"/>
<path d="m33.965 60.658 0.101 1.113 0.283 0.026c8e-3 0.013 0.012 0.023 0.013 0.03s2e-3 0.017 3e-3 0.031 2e-3 0.024 2e-3 0.031c1e-3 0.014-1e-3 0.028-6e-3 0.042-0.145 6e-3 -0.293 0.016-0.444 0.03-0.055 5e-3 -0.12 0.014-0.195 0.028-0.076 7e-3 -0.162 0.015-0.258 0.023-9e-3 -0.02-0.014-0.04-0.016-0.061s-1e-3 -0.045 4e-3 -0.073l0.274-0.066c-6e-3 -0.062-8e-3 -0.131-8e-3 -0.207-6e-3 -0.069-0.013-0.148-0.021-0.237l-0.067-0.732c-0.014-0.151-0.027-0.264-0.041-0.339l-0.281-6e-3c-1e-3 -0.014-3e-3 -0.034-5e-3 -0.062-1e-3 -0.014-2e-3 -0.027-4e-3 -0.041-1e-3 -7e-3 -2e-3 -0.017-3e-3 -0.031 0.157-0.028 0.354-0.07 0.592-0.126 0.022 0.019 0.038 0.038 0.046 0.058-8e-3 0.07 3e-3 0.26 0.031 0.569zm-0.617-1.192c-8e-3 -0.013-0.013-0.027-0.014-0.04-1e-3 -0.014-2e-3 -0.024-3e-3 -0.031-6e-3 -0.062 0.017-0.116 0.069-0.162 0.045-0.039 0.105-0.061 0.181-0.069 0.076-7e-3 0.136 9e-3 0.181 0.046 0.052 0.037 0.081 0.093 0.088 0.169 6e-3 0.062-0.018 0.112-0.07 0.152-0.045 0.039-0.109 0.062-0.191 0.069-0.055 5e-3 -0.104-4e-3 -0.148-0.028s-0.075-0.059-0.093-0.106z" data-fill-palette-color="accent"/>
<path d="m35.113 61.349c0.018 0.123 0.055 0.205 0.11 0.245 0.048 0.042 0.12 0.055 0.216 0.041 0.068-0.01 0.14-0.042 0.216-0.095 0.083-0.054 0.152-0.127 0.208-0.219l-0.079-0.532c-0.237 0.049-0.412 0.117-0.525 0.203-0.12 0.088-0.168 0.206-0.146 0.357zm0.651-0.693-0.026-0.175c-0.028-0.191-0.073-0.327-0.134-0.409-0.054-0.083-0.132-0.116-0.235-0.101-0.109 0.016-0.189 0.063-0.241 0.141-0.058 0.078-0.085 0.201-0.081 0.368-0.073 0.025-0.127 0.04-0.161 0.044-0.089 0.013-0.145-0.013-0.169-0.079-0.022-0.15 0.028-0.283 0.15-0.399 0.123-0.109 0.284-0.178 0.482-0.208 0.225-0.034 0.389-0.013 0.491 0.063 0.109 0.075 0.181 0.231 0.216 0.47l0.143 0.963c9e-3 0.061 0.02 0.112 0.034 0.152l0.281-0.011c0.012 0.033 0.019 0.077 0.019 0.133-0.163 0.031-0.334 0.074-0.514 0.129-0.024-0.017-0.041-0.039-0.052-0.065l-0.045-0.234c-0.159 0.247-0.354 0.388-0.586 0.422-0.15 0.022-0.272-1e-3 -0.366-0.071s-0.152-0.176-0.174-0.32c-0.031-0.212 0.044-0.387 0.226-0.525 0.175-0.138 0.422-0.234 0.742-0.288z" data-fill-palette-color="accent"/>
<path d="m37.022 59.181 0.103 0.486 0.476-0.1c0.012 0.026 0.02 0.045 0.023 0.058 4e-3 0.02 6e-3 0.045 5e-3 0.073l-0.461 0.172 0.199 0.942c0.036 0.169 0.074 0.284 0.116 0.345 0.048 0.06 0.106 0.083 0.173 0.07 0.054-0.011 0.14-0.054 0.259-0.129 0.025 0.016 0.05 0.053 0.076 0.111-0.059 0.055-0.107 0.093-0.145 0.115-0.029 0.027-0.069 0.057-0.119 0.089-0.051 0.025-0.104 0.043-0.157 0.054-0.115 0.024-0.219 0-0.312-0.072-0.086-0.073-0.148-0.201-0.187-0.383l-0.235-1.114-0.25 0.021c-0.011-0.019-0.018-0.035-0.021-0.049-4e-3 -0.02-7e-3 -0.048-7e-3 -0.083 0.058-0.026 0.108-0.058 0.149-0.095 0.042-0.037 0.074-0.083 0.098-0.137 0.022-0.061 0.036-0.113 0.041-0.157 0.012-0.045 0.02-0.106 0.024-0.185 0.019-0.011 0.045-0.02 0.079-0.027 0.027-6e-3 0.051-7e-3 0.073-5e-3z" data-fill-palette-color="accent"/>
<path d="m38.703 59.787 0.282 1.082 0.284-0.02c0.01 0.012 0.016 0.021 0.017 0.027 2e-3 7e-3 4e-3 0.017 8e-3 0.03 3e-3 0.013 6e-3 0.023 8e-3 0.03 3e-3 0.013 4e-3 0.028 1e-3 0.043-0.142 0.03-0.286 0.064-0.434 0.102-0.053 0.014-0.116 0.034-0.187 0.06-0.073 0.019-0.157 0.041-0.251 0.065-0.012-0.018-0.02-0.037-0.026-0.057-5e-3 -0.02-8e-3 -0.044-8e-3 -0.073l0.26-0.111c-0.016-0.06-0.03-0.128-0.042-0.203-0.017-0.067-0.037-0.144-0.06-0.23l-0.186-0.711c-0.038-0.147-0.07-0.256-0.096-0.328l-0.278 0.041c-3e-3 -0.013-9e-3 -0.033-0.016-0.061-3e-3 -0.013-7e-3 -0.027-0.01-0.04-2e-3 -7e-3 -4e-3 -0.017-8e-3 -0.03 0.15-0.053 0.338-0.127 0.563-0.221 0.025 0.015 0.044 0.031 0.055 0.049 4e-3 0.07 0.045 0.256 0.124 0.556zm-0.804-1.073c-0.01-0.012-0.017-0.024-0.021-0.038-3e-3 -0.013-6e-3 -0.023-8e-3 -0.03-0.016-0.06-2e-3 -0.117 0.041-0.171 0.038-0.046 0.094-0.078 0.168-0.097 0.073-0.019 0.135-0.014 0.186 0.015 0.057 0.028 0.095 0.079 0.114 0.152 0.016 0.06 1e-3 0.114-0.043 0.162-0.038 0.046-0.097 0.079-0.178 0.099-0.053 0.014-0.104 0.013-0.15-3e-3 -0.047-0.016-0.083-0.046-0.109-0.089z" data-fill-palette-color="accent"/>
<path d="m39.504 59.946c-0.045-0.138-0.066-0.269-0.063-0.393 1e-3 -0.131 0.024-0.251 0.069-0.36 0.044-0.109 0.111-0.206 0.198-0.293 0.09-0.08 0.198-0.14 0.323-0.181 0.125-0.04 0.247-0.055 0.367-0.043 0.122 0.018 0.233 0.059 0.332 0.121 0.106 0.06 0.199 0.142 0.277 0.247 0.076 0.099 0.136 0.217 0.18 0.355 0.043 0.131 0.06 0.263 0.053 0.397-3e-3 0.124-0.027 0.241-0.072 0.349-0.044 0.109-0.112 0.203-0.201 0.284-0.088 0.087-0.194 0.15-0.319 0.19-0.131 0.043-0.254 0.057-0.367 0.043-0.12-0.012-0.23-0.049-0.33-0.11-0.1-0.062-0.189-0.145-0.267-0.251-0.076-0.099-0.136-0.217-0.18-0.355zm0.294-0.77c-0.056 0.163-0.039 0.383 0.05 0.658 0.043 0.131 0.094 0.245 0.155 0.342 0.058 0.09 0.121 0.16 0.188 0.211 0.063 0.059 0.129 0.096 0.199 0.109 0.07 0.014 0.141 9e-3 0.213-0.015 0.072-0.023 0.133-0.061 0.181-0.113s0.084-0.122 0.106-0.208c0.025-0.081 0.034-0.174 0.028-0.282-8e-3 -0.114-0.033-0.236-0.075-0.367-0.045-0.138-0.097-0.255-0.158-0.351-0.058-0.09-0.121-0.16-0.188-0.211-0.069-0.057-0.139-0.093-0.209-0.107s-0.141-9e-3 -0.213 0.015c-0.138 0.045-0.23 0.151-0.277 0.319z" data-fill-palette-color="accent"/>
<path d="m43.096 58.948-0.244-0.582c-0.069-0.165-0.14-0.271-0.211-0.316-0.074-0.051-0.162-0.056-0.264-0.013-0.159 0.067-0.268 0.254-0.325 0.563l0.448 1.069 0.278-0.06c0.026 0.026 0.043 0.068 0.052 0.124-0.136 0.05-0.274 0.104-0.415 0.162-0.102 0.043-0.24 0.105-0.416 0.186-0.029-0.033-0.046-0.074-0.052-0.124l0.242-0.146c-0.042-0.117-0.096-0.255-0.162-0.415l-0.368-0.878c-0.016-0.038-0.035-0.075-0.058-0.111l-0.27 0.08c-0.022-0.036-0.04-0.077-0.052-0.124 0.147-0.077 0.323-0.176 0.526-0.299 0.027 0.011 0.048 0.025 0.062 0.041 0.011 0.063 0.045 0.161 0.101 0.294 0.076-0.301 0.219-0.496 0.429-0.583 0.331-0.139 0.562-0.052 0.692 0.259l0.48 1.146 0.278-0.06c0.026 0.026 0.043 0.068 0.052 0.124-0.136 0.05-0.274 0.104-0.414 0.162-0.102 0.043-0.24 0.105-0.416 0.186-0.029-0.033-0.046-0.074-0.052-0.124l0.241-0.146c-0.042-0.117-0.096-0.255-0.162-0.415z" data-fill-palette-color="accent"/>
<path d="m44.903 57.741c-0.071-0.126-0.117-0.251-0.138-0.374-0.025-0.129-0.026-0.251-4e-3 -0.365 0.022-0.115 0.068-0.224 0.138-0.327 0.073-0.096 0.166-0.176 0.28-0.24s0.231-0.102 0.352-0.114c0.123-6e-3 0.24 0.012 0.35 0.052 0.116 0.038 0.223 0.101 0.319 0.189 0.094 0.082 0.176 0.186 0.247 0.313 0.068 0.12 0.111 0.247 0.129 0.378 0.021 0.123 0.021 0.242-1e-3 0.357s-0.07 0.221-0.143 0.317c-0.069 0.102-0.161 0.185-0.275 0.25-0.12 0.068-0.237 0.106-0.352 0.114-0.12 0.012-0.235-3e-3 -0.345-0.044s-0.214-0.106-0.31-0.193c-0.094-0.082-0.176-0.186-0.247-0.313zm0.137-0.813c-0.023 0.171 0.037 0.383 0.179 0.636 0.068 0.12 0.14 0.222 0.219 0.304 0.075 0.077 0.15 0.133 0.225 0.17 0.073 0.046 0.145 0.069 0.217 0.069 0.071 0 0.14-0.019 0.206-0.056s0.118-0.086 0.155-0.147c0.037-0.06 0.058-0.136 0.063-0.225 8e-3 -0.084-1e-3 -0.178-0.027-0.282-0.03-0.11-0.079-0.225-0.146-0.345-0.071-0.126-0.145-0.231-0.224-0.314-0.075-0.077-0.15-0.133-0.226-0.17-0.079-0.043-0.154-0.064-0.225-0.063-0.071 0-0.14 0.019-0.206 0.056-0.126 0.071-0.196 0.193-0.21 0.367z" data-fill-palette-color="accent"/>
<path d="m46.521 54.542c0.288-0.19 0.506-0.172 0.654 0.052-0.01 0.073-0.092 0.155-0.246 0.249-0.156-0.187-0.274-0.253-0.354-0.201-0.069 0.046-0.083 0.137-0.042 0.276 0.051 0.14 0.179 0.366 0.383 0.677l0.415-0.273c0.034 0.027 0.059 0.064 0.074 0.112l-0.375 0.334 0.734 1.115 0.395-0.173c0.038 0.033 0.063 0.07 0.074 0.113-0.125 0.074-0.277 0.17-0.456 0.287-0.104 0.068-0.237 0.16-0.401 0.276-0.034-0.027-0.059-0.064-0.073-0.112l0.187-0.186c-0.063-0.108-0.139-0.231-0.23-0.369l-0.529-0.804-0.225 0.111c-0.038-0.033-0.063-0.07-0.074-0.113l0.208-0.136-0.131-0.199c-0.08-0.121-0.136-0.245-0.17-0.371-0.034-0.127-0.038-0.252-0.012-0.377 0.026-0.124 0.09-0.221 0.194-0.288z" data-fill-palette-color="accent"/>
<path d="m51.315 53.617-1.294-1.522 0.926 2.718-0.071 0.061-2.441-1.321 1.24 1.459c0.121 0.142 0.213 0.245 0.277 0.308l0.271-0.176c0.037 0.023 0.064 0.054 0.08 0.095-0.157 0.124-0.267 0.213-0.33 0.267-0.105 0.089-0.211 0.184-0.316 0.282-0.037-0.032-0.063-0.064-0.081-0.094l0.218-0.24-1.328-1.561c-0.116-0.137-0.206-0.237-0.269-0.301l-0.248 0.157c-0.037-0.023-0.064-0.054-0.08-0.095l0.583-0.496 2.151 1.187-0.803-2.334c0.041-0.026 0.104-0.075 0.188-0.146 0.021-0.018 0.158-0.139 0.412-0.364 0.037 0.023 0.064 0.054 0.08 0.095l-0.194 0.219c0.053 0.073 0.137 0.178 0.254 0.314l1.328 1.562 0.239-0.15c0.028 0.022 0.054 0.053 0.081 0.095-0.115 0.089-0.238 0.189-0.37 0.3-0.095 0.08-0.216 0.188-0.364 0.323-0.051-0.038-0.078-0.07-0.08-0.094l0.194-0.219c-0.048-0.077-0.132-0.187-0.253-0.329z" data-fill-palette-color="accent"/>
<path d="m52.123 51.849 0.799 0.782 0.232-0.163c0.015 5e-3 0.024 0.01 0.03 0.014l0.044 0.044c0.01 0.01 0.017 0.022 0.022 0.036-0.106 0.099-0.213 0.202-0.319 0.311-0.039 0.039-0.082 0.089-0.13 0.147-0.053 0.054-0.114 0.116-0.181 0.185-0.02-0.01-0.037-0.022-0.052-0.036s-0.03-0.034-0.044-0.058l0.166-0.229c-0.044-0.043-0.091-0.094-0.141-0.152-0.049-0.048-0.106-0.104-0.17-0.167l-0.524-0.514c-0.108-0.106-0.192-0.184-0.252-0.232l-0.217 0.178c-0.01-0.01-0.025-0.024-0.045-0.044-0.01-0.01-0.02-0.019-0.029-0.029-5e-3 -5e-3 -0.012-0.012-0.023-0.021 0.101-0.123 0.224-0.283 0.369-0.48 0.029 0 0.054 4e-3 0.073 0.014 0.04 0.058 0.17 0.196 0.392 0.414zm-1.242-0.508c-0.015-5e-3 -0.027-0.012-0.036-0.022-0.01-0.01-0.017-0.017-0.023-0.021-0.044-0.043-0.062-0.099-0.052-0.168 9e-3 -0.059 0.04-0.115 0.093-0.169s0.109-0.082 0.168-0.083c0.063-5e-3 0.122 0.018 0.176 0.072 0.044 0.043 0.06 0.097 0.045 0.16-9e-3 0.059-0.043 0.118-0.1 0.177-0.039 0.039-0.082 0.064-0.131 0.075-0.049 0.01-0.095 3e-3 -0.14-0.021z" data-fill-palette-color="accent"/>
<path d="m54.046 50.709-0.479-0.413c-0.136-0.117-0.246-0.18-0.329-0.188-0.089-0.013-0.17 0.022-0.242 0.106-0.113 0.131-0.126 0.347-0.04 0.649l0.878 0.757 0.222-0.178c0.035 0.012 0.069 0.041 0.102 0.088-0.1 0.105-0.199 0.215-0.299 0.33-0.072 0.084-0.169 0.201-0.289 0.352-0.04-0.017-0.074-0.046-0.102-0.088l0.151-0.239c-0.09-0.086-0.2-0.186-0.33-0.298l-0.722-0.622c-0.031-0.027-0.065-0.051-0.1-0.073l-0.206 0.191c-0.036-0.022-0.07-0.051-0.102-0.088 0.098-0.134 0.21-0.302 0.337-0.502 0.029-2e-3 0.054 1e-3 0.074 9e-3 0.038 0.051 0.112 0.124 0.222 0.219-0.066-0.303-0.025-0.541 0.123-0.714 0.234-0.272 0.48-0.297 0.736-0.076l0.94 0.811 0.222-0.178c0.035 0.012 0.069 0.041 0.102 0.088-0.1 0.105-0.199 0.215-0.299 0.33-0.072 0.084-0.169 0.201-0.289 0.352-0.04-0.017-0.074-0.046-0.102-0.088l0.151-0.239c-0.09-0.086-0.2-0.186-0.33-0.298z" data-fill-palette-color="accent"/>
<path d="m55.551 48.741-0.511-0.372c-0.145-0.106-0.26-0.159-0.344-0.16-0.09-6e-3 -0.167 0.036-0.232 0.126-0.101 0.14-0.097 0.356 0.014 0.649l0.938 0.682 0.206-0.195c0.036 9e-3 0.072 0.035 0.109 0.079-0.091 0.113-0.181 0.231-0.271 0.354-0.065 0.089-0.151 0.214-0.259 0.374-0.042-0.013-0.078-0.04-0.109-0.079l0.131-0.25c-0.096-0.079-0.214-0.169-0.354-0.271l-0.77-0.56c-0.033-0.024-0.069-0.046-0.107-0.064l-0.189 0.207c-0.038-0.019-0.074-0.045-0.109-0.079 0.086-0.142 0.184-0.318 0.295-0.528 0.029-5e-3 0.054-4e-3 0.074 3e-3 0.042 0.048 0.122 0.114 0.239 0.2-0.091-0.297-0.07-0.537 0.064-0.722 0.211-0.29 0.453-0.336 0.727-0.137l1.004 0.731 0.207-0.196c0.036 9e-3 0.072 0.035 0.108 0.079-0.091 0.113-0.181 0.231-0.27 0.354-0.065 0.089-0.151 0.214-0.259 0.374-0.042-0.013-0.078-0.04-0.109-0.079l0.131-0.25c-0.096-0.079-0.214-0.169-0.354-0.27z" data-fill-palette-color="accent"/>
<path d="m56.61 46.425-0.579 0.932c0.493 0.33 0.84 0.334 1.04 0.012 0.084-0.135 0.108-0.311 0.072-0.528 0.036-0.018 0.083-0.022 0.141-0.01 0.069 0.229 0.038 0.45-0.094 0.661-0.298 0.481-0.732 0.545-1.3 0.192-0.27-0.167-0.434-0.367-0.494-0.599-0.056-0.238-0.025-0.45 0.091-0.638 0.127-0.205 0.29-0.311 0.49-0.317 0.201 3e-3 0.416 0.075 0.645 0.217 7e-3 0.029 3e-3 0.054-0.012 0.078zm-1.014 0.102c-0.062 0.1-0.064 0.22-5e-3 0.362 0.062 0.136 0.172 0.265 0.331 0.389l0.23-0.37c0.091-0.147 0.148-0.258 0.17-0.333-0.164-0.102-0.312-0.157-0.445-0.166-0.129-0.015-0.222 0.025-0.281 0.118z" data-fill-palette-color="accent"/>
<path d="m57.993 45.767c0.058-0.11 0.078-0.205 0.059-0.285-0.029-0.078-0.077-0.135-0.144-0.171-0.037-0.019-0.076-0.033-0.12-0.04-0.037-4e-3 -0.077-2e-3 -0.12 6e-3 -0.047 0.014-0.097 0.035-0.15 0.061-0.056 0.033-0.121 0.073-0.193 0.12-0.085 0.056-0.162 0.105-0.231 0.147-0.075 0.038-0.145 0.067-0.21 0.087-0.062 0.014-0.122 0.017-0.181 9e-3 -0.062-2e-3 -0.123-0.019-0.184-0.051-0.073-0.039-0.129-0.088-0.167-0.147-0.042-0.054-0.068-0.114-0.079-0.183-0.011-0.068-4e-3 -0.139 0.019-0.213 0.017-0.077 0.047-0.155 0.09-0.233 0.084-0.158 0.204-0.294 0.357-0.408l0.402 0.214-0.077 0.146-0.373-0.116c-0.091 0.069-0.165 0.155-0.219 0.259-0.088 0.164-0.061 0.284 0.079 0.358 0.073 0.039 0.155 0.047 0.244 0.025 0.09-0.022 0.198-0.078 0.324-0.168 0.088-0.063 0.167-0.115 0.236-0.156 0.078-0.044 0.15-0.076 0.215-0.096s0.127-0.026 0.186-0.018c0.062 2e-3 0.126 0.02 0.193 0.056 0.073 0.039 0.132 0.09 0.177 0.152 0.041 0.069 0.069 0.142 0.082 0.22s0.016 0.161 7e-3 0.25c-0.018 0.092-0.053 0.187-0.104 0.285-0.097 0.183-0.228 0.332-0.391 0.448l-0.393-0.209 0.078-0.146 0.335 0.096c0.104-0.078 0.188-0.177 0.253-0.299z" data-fill-palette-color="accent"/>
<path d="m57.796 44.297c-0.132-0.059-0.244-0.131-0.334-0.217-0.097-0.088-0.17-0.186-0.221-0.292s-0.079-0.22-0.085-0.343c1e-3 -0.121 0.028-0.241 0.082-0.361 0.053-0.12 0.125-0.22 0.213-0.301 0.095-0.078 0.2-0.134 0.313-0.167 0.116-0.039 0.239-0.052 0.369-0.039 0.124 0.01 0.252 0.044 0.384 0.103 0.126 0.056 0.236 0.132 0.33 0.227 0.09 0.086 0.161 0.181 0.212 0.287s0.076 0.219 0.075 0.339c5e-3 0.123-0.019 0.245-0.072 0.365-0.056 0.126-0.127 0.227-0.214 0.301-0.089 0.081-0.19 0.138-0.302 0.171-0.113 0.033-0.234 0.043-0.365 0.03-0.124-0.01-0.252-0.044-0.385-0.103zm-0.375-0.734c0.084 0.151 0.258 0.285 0.523 0.403 0.126 0.056 0.245 0.094 0.357 0.114 0.106 0.017 0.2 0.017 0.283 1e-3 0.086-7e-3 0.158-0.032 0.214-0.074 0.057-0.043 0.101-0.099 0.132-0.168s0.043-0.139 0.037-0.21-0.034-0.144-0.084-0.219c-0.043-0.072-0.107-0.142-0.19-0.209-0.09-0.07-0.197-0.133-0.323-0.19-0.132-0.059-0.255-0.098-0.367-0.118-0.106-0.017-0.2-0.017-0.283-2e-3 -0.089 0.013-0.162 0.041-0.218 0.084-0.057 0.043-0.101 0.099-0.132 0.168-0.059 0.132-0.042 0.272 0.051 0.42z" data-fill-palette-color="accent"/>
<path d="m57.611 41.233 0.466 0.172 0.168-0.456c0.028 3e-3 0.049 7e-3 0.062 0.011 0.019 7e-3 0.041 0.019 0.064 0.035l-0.1 0.482 0.903 0.333c0.162 0.06 0.28 0.088 0.355 0.086 0.077-9e-3 0.127-0.045 0.15-0.11 0.019-0.052 0.029-0.148 0.029-0.287 0.027-0.012 0.071-0.014 0.134-6e-3 0.015 0.079 0.022 0.14 0.021 0.184 7e-3 0.04 0.011 0.089 0.012 0.148-6e-3 0.057-0.019 0.111-0.038 0.162-0.041 0.11-0.116 0.185-0.227 0.226-0.108 0.034-0.249 0.018-0.424-0.046l-1.068-0.394-0.115 0.223c-0.022-1e-3 -0.039-3e-3 -0.053-9e-3 -0.019-7e-3 -0.044-0.02-0.074-0.038 9e-3 -0.063 8e-3 -0.122-1e-3 -0.177s-0.03-0.107-0.064-0.156c-0.04-0.051-0.077-0.091-0.11-0.118-0.032-0.034-0.08-0.073-0.144-0.119 1e-3 -0.022 7e-3 -0.049 0.019-0.081 0.01-0.026 0.021-0.047 0.035-0.065z" data-fill-palette-color="accent"/>
<path d="m59.726 40.622c0.119 0.036 0.208 0.038 0.269 6e-3 0.058-0.026 0.101-0.085 0.129-0.177 0.02-0.066 0.022-0.145 6e-3 -0.236-0.014-0.098-0.05-0.192-0.109-0.282l-0.515-0.156c-0.057 0.235-0.07 0.422-0.04 0.561 0.028 0.145 0.115 0.24 0.26 0.284zm-0.349-0.884-0.169-0.05c-0.185-0.056-0.327-0.074-0.427-0.054-0.098 0.014-0.162 0.07-0.192 0.169-0.032 0.106-0.024 0.198 0.025 0.278 0.046 0.086 0.145 0.163 0.298 0.231-9e-3 0.077-0.018 0.132-0.028 0.164-0.026 0.086-0.074 0.125-0.144 0.119-0.145-0.044-0.244-0.146-0.297-0.306-0.046-0.158-0.04-0.333 0.018-0.524 0.066-0.218 0.155-0.357 0.266-0.417 0.114-0.067 0.286-0.065 0.518 5e-3l0.931 0.281c0.059 0.018 0.11 0.03 0.152 0.035l0.11-0.259c0.035 3e-3 0.078 0.016 0.129 0.039-0.041 0.161-0.076 0.334-0.103 0.52-0.026 0.014-0.053 0.02-0.081 0.019l-0.231-0.059c0.156 0.249 0.199 0.485 0.131 0.71-0.044 0.145-0.117 0.246-0.22 0.301s-0.224 0.062-0.363 0.02c-0.205-0.062-0.331-0.204-0.379-0.428-0.05-0.217-0.031-0.482 0.056-0.794z" data-fill-palette-color="accent"/>
<path d="m0.381 31.457c0-0.608 0.493-1.101 1.101-1.101s1.101 0.493 1.101 1.101-0.493 1.101-1.101 1.101-1.101-0.493-1.101-1.101z" data-fill-palette-color="accent"/>
<path d="m59.555 31.457c0-0.608 0.493-1.101 1.101-1.101s1.101 0.493 1.101 1.101-0.493 1.101-1.101 1.101-1.101-0.493-1.101-1.101z" data-fill-palette-color="accent"/>
</g>
</svg>
</svg>
</g>
</svg>
</svg>
<rect width="395.52" height="89.449" fill="none" visibility="hidden"/>
</g>
</svg>
</g>
</svg>
